<svg xmlns="http://www.w3.org/2000/svg" width="130" height="130" viewBox="0 0 130 130">
  <g id="cat1" transform="translate(-1369.512 -3542.512)">
    <g id="icons8_ingredients" transform="translate(1369.512 3542.512)">
      <path id="Path_5569" data-name="Path 5569" d="M77.807,12a1.807,1.807,0,1,0,1.807,1.807A1.807,1.807,0,0,0,77.807,12Z" transform="translate(30.504 -10.193)" fill="#f1bc19"/>
      <path id="Path_5570" data-name="Path 5570" d="M74.385,13A61.385,61.385,0,1,0,135.77,74.385,61.385,61.385,0,0,0,74.385,13Z" transform="translate(-9.385 -9.385)" fill="#20202c" opacity="0.07"/>
      <path id="Path_5571" data-name="Path 5571" d="M86.23,11a7.23,7.23,0,1,0,7.23,7.23A7.23,7.23,0,0,0,86.23,11Z" transform="translate(32.926 -11)" fill="#f1bc19"/>
      <path id="Path_5572" data-name="Path 5572" d="M88.615,22a3.615,3.615,0,1,0,3.615,3.615A3.615,3.615,0,0,0,88.615,22Z" transform="translate(37.77 -2.119)" fill="#8889b9"/>
      <path id="Path_5573" data-name="Path 5573" d="M126.846,86.111a3.629,3.629,0,1,0,3.31,3.615A3.472,3.472,0,0,0,126.846,86.111ZM17.62,59C13.964,59,11,62.237,11,66.23s2.964,7.23,6.62,7.23,6.62-3.237,6.62-7.23S21.276,59,17.62,59Z" transform="translate(-11 16.778)" fill="#fbcd59"/>
      <path id="Path_5574" data-name="Path 5574" d="M26.615,85a3.615,3.615,0,1,0,3.615,3.615A3.615,3.615,0,0,0,26.615,85Z" transform="translate(-3.091 37.77)" fill="#8889b9"/>
      <path id="Path_5575" data-name="Path 5575" d="M20.1,62.726a4.54,4.54,0,0,0,0,9.037,4.54,4.54,0,0,0,0-9.037ZM120.046,32a2.724,2.724,0,1,0,2.458,2.711A2.594,2.594,0,0,0,120.046,32Z" transform="translate(-6.963 1.839)" fill="#fff"/>
    </g>
    <g id="svgexport-6" transform="translate(1398.702 3562.923)">
      <g id="Group_17569" data-name="Group 17569" transform="translate(0 0)">
        <g id="Group_17568" data-name="Group 17568">
          <g id="Group_17565" data-name="Group 17565" transform="translate(0 0.141)">
            <path id="Path_5676" data-name="Path 5676" d="M324.021,92.094a6.671,6.671,0,0,1,12.4,3.411,6.759,6.759,0,0,1-.047.784,8.97,8.97,0,0,1,2.421-.343,7.209,7.209,0,0,1,2.1.3c.016-.245.027-.492.027-.741a11.17,11.17,0,0,0-20.143-6.652Z" transform="translate(-273.965 -70.15)" fill="#fed2a4"/>
            <path id="Path_5677" data-name="Path 5677" d="M56.633,167.248l.231-.042L56.752,167a9.542,9.542,0,0,1-.5-1.07,6.67,6.67,0,1,1,5.828-11.147,6.015,6.015,0,0,1,1.6-2.957,5.829,5.829,0,0,1,.993-.8,11.17,11.17,0,1,0-12.24,18.4A7.312,7.312,0,0,1,56.633,167.248Z" transform="translate(-45.891 -123.13)" fill="#fed2a4"/>
            <g id="Group_17545" data-name="Group 17545" transform="translate(34.958 11.266)">
              <path id="Path_5678" data-name="Path 5678" d="M257,88.631a3.693,3.693,0,0,1,1.6-.348,6.426,6.426,0,0,1,3.128.947l.222.127.031-.254c.545-4.433,2.891-7.651,5.576-7.651,1.946,0,3.739,1.66,4.8,4.441l.105.276.186-.23a12.425,12.425,0,0,1,.842-.94L255.9,67.406a.878.878,0,0,0-1.281.046,14.616,14.616,0,0,0-2.566,15.138c2.211.225,4.143,2.624,4.951,6.041Z" transform="translate(-250.984 -67.15)" fill="#fb2b3a"/>
              <path id="Path_5679" data-name="Path 5679" d="M257,88.631a3.694,3.694,0,0,1,1.6-.348,4.616,4.616,0,0,1,.535.036,14.614,14.614,0,0,1-.406-18.075L255.9,67.406a.878.878,0,0,0-1.281.046,14.616,14.616,0,0,0-2.566,15.138C254.264,82.815,256.2,85.214,257,88.631Z" transform="translate(-250.984 -67.15)" fill="#e41f2d"/>
              <g id="Group_17544" data-name="Group 17544" transform="translate(4.417 8.616)">
                <g id="Group_17542" data-name="Group 17542" transform="translate(2.429 4.853)">
                  <path id="Path_5680" data-name="Path 5680" d="M292.562,150.4a1.274,1.274,0,0,1-.9-2.175l1.41-1.41a1.274,1.274,0,0,1,1.8,1.8l-1.41,1.41A1.27,1.27,0,0,1,292.562,150.4Z" transform="translate(-291.288 -146.437)" fill="#fe646f"/>
                </g>
                <g id="Group_17543" data-name="Group 17543">
                  <path id="Path_5681" data-name="Path 5681" d="M280.256,120.415h-1.995a1.274,1.274,0,1,1,0-2.548h1.995a1.274,1.274,0,1,1,0,2.548Z" transform="translate(-276.987 -117.867)" fill="#fe646f"/>
                </g>
              </g>
            </g>
            <g id="Group_17552" data-name="Group 17552" transform="translate(11.137)">
              <g id="Group_17546" data-name="Group 17546" transform="translate(0)">
                <path id="Path_5682" data-name="Path 5682" d="M128.8,18.876a13.033,13.033,0,0,0,.64-17.743.877.877,0,0,0-1.282-.046L111.012,18.235a.877.877,0,0,0,.046,1.282,13.033,13.033,0,0,0,17.743-.64Z" transform="translate(-110.756 -0.832)" fill="#fd4755"/>
              </g>
              <g id="Group_17547" data-name="Group 17547" transform="translate(0 14.354)">
                <path id="Path_5683" data-name="Path 5683" d="M114.3,85.677a.864.864,0,0,1-.239-.346l-3.049,3.049a.877.877,0,0,0,.046,1.282,13.035,13.035,0,0,0,20.06-3.784A13.035,13.035,0,0,1,114.3,85.677Z" transform="translate(-110.755 -85.331)" fill="#fb2b3a"/>
              </g>
              <g id="Group_17551" data-name="Group 17551" transform="translate(7.504 7.86)">
                <g id="Group_17548" data-name="Group 17548" transform="translate(4.329 4.225)">
                  <path id="Path_5684" data-name="Path 5684" d="M182.942,75.774a1.27,1.27,0,0,1-.9-.373l-1.258-1.258a1.274,1.274,0,0,1,1.8-1.8l1.258,1.258a1.274,1.274,0,0,1-.9,2.175Z" transform="translate(-180.41 -71.968)" fill="#e41f2d"/>
                </g>
                <g id="Group_17549" data-name="Group 17549" transform="translate(0 5.871)">
                  <path id="Path_5685" data-name="Path 5685" d="M156.2,85.983a1.274,1.274,0,0,1-1.274-1.274V82.93a1.274,1.274,0,1,1,2.548,0v1.779A1.274,1.274,0,0,1,156.2,85.983Z" transform="translate(-154.927 -81.656)" fill="#e41f2d"/>
                </g>
                <g id="Group_17550" data-name="Group 17550" transform="translate(6.226)">
                  <path id="Path_5686" data-name="Path 5686" d="M194.632,49.646h-1.779a1.274,1.274,0,0,1,0-2.548h1.779a1.274,1.274,0,0,1,0,2.548Z" transform="translate(-191.579 -47.098)" fill="#e41f2d"/>
                </g>
              </g>
            </g>
            <path id="Path_5687" data-name="Path 5687" d="M90.8,222.421a10.98,10.98,0,0,1,.267-2.4c-3.062-.971-5.1-2.888-5.1-5.025,0-1.945,1.659-3.738,4.438-4.8l.276-.1-.229-.186a12.361,12.361,0,0,1-.949-.853,11.011,11.011,0,0,1-3.213-6.184,5.373,5.373,0,0,0-4.472.846c-2.346,1.783-2.655,5.438-.914,8.656-2.943.53-5.213,2.405-5.554,4.906a5.842,5.842,0,0,0,2.7,5.42H90.8C90.8,222.608,90.8,222.515,90.8,222.421Z" transform="translate(-70.191 -168.425)" fill="#80d261"/>
            <g id="Group_17556" data-name="Group 17556" transform="translate(15.604 26.516)">
              <g id="Group_17553" data-name="Group 17553">
                <path id="Path_5688" data-name="Path 5688" d="M204.605,285.536c.015-.018.031-.035.046-.053,0-.076.006-.151.006-.228a6.841,6.841,0,0,0-13.682,0c0,.094.005.188.009.281Z" transform="translate(-181.815 -257.776)" fill="#017b4e"/>
                <path id="Path_5689" data-name="Path 5689" d="M153.056,173.4a11,11,0,0,1,9.182,4.952,14.524,14.524,0,0,1,.2-3.3c-.128-.2-.254-.406-.375-.616a13.457,13.457,0,0,1-1.945-6.756c.035-2.09.772-3.656,2.075-4.408a3.394,3.394,0,0,1,.4-.2c-.862-3.609-2.977-6.16-5.45-6.16-2.086,0-3.916,1.816-4.955,4.55a12.455,12.455,0,0,0-.877-.976c-3.781-3.781-9.232-4.458-12.177-1.514s-2.267,8.4,1.514,12.177a12.461,12.461,0,0,0,.962.864c-2.733,1.04-4.548,2.87-4.548,4.955,0,2.254,2.12,4.21,5.228,5.191a11.019,11.019,0,0,1,10.772-8.768Z" transform="translate(-137.055 -156.923)" fill="#017b4e"/>
              </g>
              <g id="Group_17554" data-name="Group 17554" transform="translate(0 0.23)">
                <path id="Path_5690" data-name="Path 5690" d="M195.032,304.049a13.169,13.169,0,0,1-2.524-.761,6.654,6.654,0,0,0-.532,2.724l0,0h3.4a7.03,7.03,0,0,1,.276-.8A.854.854,0,0,0,195.032,304.049Z" transform="translate(-182.646 -278.654)" fill="#026841"/>
                <path id="Path_5691" data-name="Path 5691" d="M137.056,178.1c0,2.214,2.046,4.142,5.065,5.14a11.092,11.092,0,0,1,1.185-3.165,3.829,3.829,0,0,1-.57-1.975c0-1.777,1.319-3.369,3.4-4.444a.854.854,0,0,0,.2-1.366l-.009-.009c-3.781-3.781-4.458-9.232-1.514-12.177a6.03,6.03,0,0,1,2-1.321c-2.857-.966-5.79-.573-7.684,1.321-2.944,2.944-2.267,8.4,1.514,12.177a12.5,12.5,0,0,0,.962.864C138.871,174.186,137.056,176.016,137.056,178.1Z" transform="translate(-137.056 -158.275)" fill="#026841"/>
              </g>
              <g id="Group_17555" data-name="Group 17555" transform="translate(9.487 9.474)">
                <path id="Path_5692" data-name="Path 5692" d="M198.177,219.769a10.881,10.881,0,0,1,3.847.243l-6.947-6.947a1.274,1.274,0,1,0-1.8,1.8Z" transform="translate(-192.902 -212.692)" fill="#026841"/>
              </g>
            </g>
            <g id="Group_17558" data-name="Group 17558" transform="translate(38.493 25.399)">
              <path id="Path_5693" data-name="Path 5693" d="M300.373,165.449a12.537,12.537,0,0,0,.962-.864c3.781-3.781,4.458-9.232,1.514-12.177s-8.4-2.267-12.177,1.514a12.494,12.494,0,0,0-.877.976c-1.04-2.734-2.87-4.55-4.955-4.55-2.833,0-5.2,3.348-5.745,7.8-1.842-1.058-3.707-1.3-5.141-.475-2.8,1.619-2.891,6.722-.192,11.4.154.267.315.523.48.775a14.257,14.257,0,0,1,3.344-7.169.77.77,0,0,1,.58-.264.758.758,0,0,1,.539.223l16.59,16.59h2.78a6.7,6.7,0,0,0-.973-3.075c4.461-.543,7.819-2.91,7.819-5.747C304.921,168.318,303.105,166.489,300.373,165.449Z" transform="translate(-271.793 -150.348)" fill="#68ca44"/>
              <g id="Group_17557" data-name="Group 17557" transform="translate(13.089 9.474)">
                <path id="Path_5694" data-name="Path 5694" d="M359.022,206.489a1.274,1.274,0,0,0-1.8,0l-8.377,8.377,1.8,1.8,8.377-8.377a1.274,1.274,0,0,0,0-1.8Z" transform="translate(-348.844 -206.116)" fill="#80d261"/>
              </g>
            </g>
            <g id="Group_17559" data-name="Group 17559" transform="translate(40.581 37.294)">
              <path id="Path_5695" data-name="Path 5695" d="M286.109,237.068c0,.025,0,.05,0,.075l-.006.206H305.74l-16.71-16.71a.936.936,0,0,0-1.367.049,14.511,14.511,0,0,0-3.57,10.044A10.937,10.937,0,0,1,286.109,237.068Z" transform="translate(-284.085 -220.366)" fill="#fff"/>
              <path id="Path_5696" data-name="Path 5696" d="M329.2,259.048h5.9a7.666,7.666,0,0,0,2.488-1.665l-10.877-10.877a7.693,7.693,0,0,0,2.487,12.542Z" transform="translate(-317.604 -242.065)" fill="#fedf74"/>
              <path id="Path_5697" data-name="Path 5697" d="M329.209,259.048H332.1a7.692,7.692,0,0,1-3.738-10.9l-1.641-1.641a7.689,7.689,0,0,0,2.492,12.542Z" transform="translate(-317.605 -242.065)" fill="#fed402"/>
            </g>
            <g id="Group_17560" data-name="Group 17560" transform="translate(20.435 42.825)">
              <path id="Path_5698" data-name="Path 5698" d="M170,264.379c0-.093-.007-.187-.007-.281a6.671,6.671,0,1,1,13.342,0c0,.094,0,.188-.007.281h4.5c0-.094.007-.187.007-.281a11.17,11.17,0,0,0-22.34,0c0,.094,0,.187.007.281Z" transform="translate(-165.489 -252.928)" fill="#fed2a4"/>
            </g>
            <g id="Group_17561" data-name="Group 17561" transform="translate(0 54.106)">
              <path id="Path_5699" data-name="Path 5699" d="M67.909,352.066H92.768a2.591,2.591,0,0,0,.989-.192,35.2,35.2,0,0,0,21.721-30.711,1.745,1.745,0,0,0-1.749-1.825H46.947a1.746,1.746,0,0,0-1.749,1.825,35.2,35.2,0,0,0,21.721,30.711,2.591,2.591,0,0,0,.989.192Z" transform="translate(-45.197 -319.337)" fill="#00bcd4"/>
            </g>
            <g id="Group_17562" data-name="Group 17562" transform="translate(0.924 62.336)" opacity="0.2">
              <path id="Path_5700" data-name="Path 5700" d="M57.289,367.785H50.637a35.26,35.26,0,0,0,20.8,24.306,2.591,2.591,0,0,0,.989.193h6.652a2.591,2.591,0,0,1-.989-.193,35.26,35.26,0,0,1-20.8-24.306Z" transform="translate(-50.637 -367.785)" fill="#fff"/>
            </g>
            <g id="Group_17563" data-name="Group 17563" transform="translate(0 54.106)">
              <path id="Path_5701" data-name="Path 5701" d="M113.73,319.337H46.947a1.746,1.746,0,0,0-1.749,1.825,35.155,35.155,0,0,0,.922,6.4h68.435a35.169,35.169,0,0,0,.922-6.4A1.746,1.746,0,0,0,113.73,319.337Z" transform="translate(-45.197 -319.337)" fill="#eaf6ff"/>
            </g>
            <g id="Group_17564" data-name="Group 17564" transform="translate(0 54.106)" opacity="0.4">
              <path id="Path_5702" data-name="Path 5702" d="M45.2,321.162a35.154,35.154,0,0,0,.922,6.4h6.652a35.17,35.17,0,0,1-.922-6.4,1.746,1.746,0,0,1,1.749-1.825H46.947A1.746,1.746,0,0,0,45.2,321.162Z" transform="translate(-45.197 -319.337)" fill="#fff"/>
            </g>
          </g>
          <g id="Group_17566" data-name="Group 17566" transform="translate(47.517)">
            <path id="Path_5703" data-name="Path 5703" d="M334.633,8.027a.875.875,0,0,0,.643-.958A8.22,8.22,0,0,0,328.213.007a.875.875,0,0,0-.958.642l-2.308,8.614a.875.875,0,0,0,1.072,1.072Z" transform="translate(-324.916 0.001)" fill="#fe9901"/>
          </g>
          <g id="Group_17567" data-name="Group 17567" transform="translate(47.517 0)">
            <path id="Path_5704" data-name="Path 5704" d="M328.773,9.264,331.012.909a8.2,8.2,0,0,0-2.8-.9.875.875,0,0,0-.958.642l-2.308,8.614a.875.875,0,0,0,1.072,1.072L328.75,9.6a.872.872,0,0,1,.023-.339Z" transform="translate(-324.916 0.001)" fill="#fb8801"/>
          </g>
        </g>
      </g>
    </g>
  </g>
</svg>
