<svg xmlns="http://www.w3.org/2000/svg" width="130" height="130" viewBox="0 0 130 130">
  <g id="cat2" transform="translate(-909 -3562)">
    <path id="Path_5717" data-name="Path 5717" d="M77.675,12a1.675,1.675,0,1,0,1.675,1.675A1.675,1.675,0,0,0,77.675,12Z" transform="translate(941.229 3551.674)" fill="#f1bc19"/>
    <path id="Path_5570" data-name="Path 5570" d="M74.65,13A61.651,61.651,0,1,0,136.3,74.65,61.65,61.65,0,0,0,74.65,13Z" transform="translate(899.349 3552.35)" fill="#20202c" opacity="0.07"/>
    <path id="Path_5721" data-name="Path 5721" d="M85.7,11a6.7,6.7,0,1,0,6.7,6.7A6.7,6.7,0,0,0,85.7,11Z" transform="translate(943.253 3551)" fill="#f1bc19"/>
    <path id="Path_5723" data-name="Path 5723" d="M88.349,22A3.349,3.349,0,1,0,91.7,25.349,3.349,3.349,0,0,0,88.349,22Z" transform="translate(947.301 3558.421)" fill="#8889b9"/>
    <path id="Path_5725" data-name="Path 5725" d="M127.62,84.121a3.349,3.349,0,1,0,3.332,3.349A3.341,3.341,0,0,0,127.62,84.121ZM17.664,59a6.7,6.7,0,1,0,6.664,6.7A6.681,6.681,0,0,0,17.664,59Z" transform="translate(898 3582.759)" fill="#fbcd59"/>
    <path id="Path_5727" data-name="Path 5727" d="M26.349,85A3.349,3.349,0,1,0,29.7,88.349,3.349,3.349,0,0,0,26.349,85Z" transform="translate(905.995 3600.301)" fill="#8889b9"/>
    <path id="Path_5729" data-name="Path 5729" d="M20.163,60.47a4.187,4.187,0,1,0,4.163,4.187A4.175,4.175,0,0,0,20.163,60.47ZM121.731,32a2.512,2.512,0,1,0,2.5,2.512A2.5,2.5,0,0,0,121.731,32Z" transform="translate(901.374 3564.934)" fill="#fff"/>
    <g id="icons8_cookie" transform="translate(934.94 3587.94)">
      <path id="Path_5530" data-name="Path 5530" d="M92.642,51.464a10.338,10.338,0,0,1-4.632,1.149A9.132,9.132,0,0,1,79.8,48.1,14.777,14.777,0,0,1,60.589,28.835c.014-.144.032-.267.048-.4a7.427,7.427,0,0,1-4.578-7.126,8.193,8.193,0,0,1,1.148-4.224c-.755-.046-1.529-.084-2.3-.084A37.911,37.911,0,1,0,92.822,54.911C92.822,53.77,92.747,52.579,92.642,51.464Z" transform="translate(-15.851 -15.851)" fill="#fcba7f"/>
      <path id="Path_5531" data-name="Path 5531" d="M55.06,94.119A39.06,39.06,0,1,1,55.06,16c.79,0,1.589.038,2.368.086a1.149,1.149,0,0,1,.914,1.738,7.034,7.034,0,0,0-.985,3.633A6.332,6.332,0,0,0,61.174,27.5a1.15,1.15,0,0,1,.754,1.214l-.045.376a1.162,1.162,0,0,1-.078.324A13.628,13.628,0,0,0,79.524,47.18a1.147,1.147,0,0,1,1.447.535c1.773,3.409,6.869,5.1,11.3,2.872a1.149,1.149,0,0,1,1.66.92c.122,1.309.184,2.5.184,3.552A39.1,39.1,0,0,1,55.06,94.119Zm0-75.822A36.762,36.762,0,1,0,91.822,55.06c0-.546-.018-1.136-.054-1.768-4.717,1.63-9.9-.145-12.308-3.642A15.926,15.926,0,0,1,59.417,29.229a8.721,8.721,0,0,1-4.357-7.772,9.521,9.521,0,0,1,.532-3.153C55.415,18.3,55.237,18.3,55.06,18.3Z" transform="translate(-16 -16)" fill="#1f212b"/>
      <path id="Path_5532" data-name="Path 5532" d="M77.473,16.5a4.021,4.021,0,1,0,4.021,4.021A4.021,4.021,0,0,0,77.473,16.5ZM89.536,36.03a2.3,2.3,0,1,0,2.3,2.3A2.3,2.3,0,0,0,89.536,36.03ZM74.027,30.286A2.872,2.872,0,1,0,76.9,33.158a2.872,2.872,0,0,0-2.872-2.872ZM45.307,36.03A2.872,2.872,0,1,0,48.179,38.9,2.872,2.872,0,0,0,45.307,36.03Zm5.744,17.232a2.872,2.872,0,1,0,2.872,2.872A2.872,2.872,0,0,0,51.051,53.262ZM37.265,65.9a4.021,4.021,0,1,0,4.021,4.021A4.021,4.021,0,0,0,37.265,65.9Zm25.274,0a5.17,5.17,0,1,0,5.17,5.17A5.17,5.17,0,0,0,62.539,65.9ZM33.244,45.22a5.744,5.744,0,1,0,5.744,5.744A5.744,5.744,0,0,0,33.244,45.22Z" transform="translate(-14.289 -15.926)" fill="#b77748"/>
      <g id="Group_17509" data-name="Group 17509" transform="translate(12.637 0)">
        <path id="Path_5533" data-name="Path 5533" d="M77.548,25.191a4.6,4.6,0,1,1,4.6-4.6A4.6,4.6,0,0,1,77.548,25.191Zm0-8.042A3.446,3.446,0,1,0,80.994,20.6,3.451,3.451,0,0,0,77.548,17.149ZM89.61,41.274A2.872,2.872,0,1,1,92.482,38.4,2.876,2.876,0,0,1,89.61,41.274Zm0-4.6A1.723,1.723,0,1,0,91.334,38.4,1.725,1.725,0,0,0,89.61,36.679Zm-15.509,0a3.446,3.446,0,1,1,3.446-3.446A3.451,3.451,0,0,1,74.1,36.679Zm0-5.744a2.3,2.3,0,1,0,2.3,2.3A2.3,2.3,0,0,0,74.1,30.935ZM45.381,42.423a3.446,3.446,0,1,1,3.446-3.446A3.451,3.451,0,0,1,45.381,42.423Zm0-5.744a2.3,2.3,0,1,0,2.3,2.3A2.3,2.3,0,0,0,45.381,36.679Zm5.744,22.976a3.446,3.446,0,1,1,3.446-3.446A3.451,3.451,0,0,1,51.125,59.655Zm0-5.744a2.3,2.3,0,1,0,2.3,2.3A2.3,2.3,0,0,0,51.125,53.911ZM37.339,74.589a4.6,4.6,0,1,1,4.6-4.6A4.6,4.6,0,0,1,37.339,74.589Zm0-8.042a3.446,3.446,0,1,0,3.446,3.446A3.451,3.451,0,0,0,37.339,66.548ZM62.613,76.887a5.744,5.744,0,1,1,5.744-5.744A5.751,5.751,0,0,1,62.613,76.887Zm0-10.339a4.6,4.6,0,1,0,4.6,4.6A4.6,4.6,0,0,0,62.613,66.548Zm-29.295-9.19a6.318,6.318,0,1,1,6.318-6.318A6.325,6.325,0,0,1,33.318,57.357Zm0-11.488a5.17,5.17,0,1,0,5.17,5.17A5.176,5.176,0,0,0,33.318,45.869Z" transform="translate(-27 -16)" fill="#1f212b"/>
      </g>
      <g id="Group_17510" data-name="Group 17510" transform="translate(38.485 43.655)">
        <path id="Path_5534" data-name="Path 5534" d="M77.487,67.786a.57.57,0,0,1-.312-.093.576.576,0,0,1-.169-.795,32.293,32.293,0,0,0,2.938-5.643.574.574,0,0,1,1.067.424,33.376,33.376,0,0,1-3.042,5.845A.571.571,0,0,1,77.487,67.786ZM50.074,82.72a.574.574,0,0,1,0-1.149,32.059,32.059,0,0,0,24.4-11.287.575.575,0,0,1,.874.746A33.209,33.209,0,0,1,50.074,82.72ZM81.645,58.6a.536.536,0,0,1-.152-.021.574.574,0,0,1-.4-.705,32.328,32.328,0,0,0,.735-3.386.574.574,0,0,1,1.134.18,33.187,33.187,0,0,1-.762,3.507A.571.571,0,0,1,81.645,58.6Z" transform="translate(-49.5 -54)" fill="#1f212b"/>
      </g>
    </g>
  </g>
</svg>
