<svg xmlns="http://www.w3.org/2000/svg" width="130" height="130" viewBox="0 0 130 130">
  <g id="cat3" transform="translate(-429 -3562)">
    <g id="Group_17541" data-name="Group 17541" transform="translate(429 3562)">
      <g id="icons8_ingredients" transform="translate(0)">
        <path id="Path_5569" data-name="Path 5569" d="M77.681,12a1.681,1.681,0,1,0,1.681,1.681A1.681,1.681,0,0,0,77.681,12Z" transform="translate(32.152 -10.319)" fill="#f1bc19"/>
        <path id="Path_5570" data-name="Path 5570" d="M74.639,13a61.639,61.639,0,1,0,61.639,61.639A61.639,61.639,0,0,0,74.639,13Z" transform="translate(-9.639 -9.639)" fill="#20202c" opacity="0.07"/>
        <path id="Path_5571" data-name="Path 5571" d="M85.722,11a6.722,6.722,0,1,0,6.722,6.722A6.722,6.722,0,0,0,85.722,11Z" transform="translate(34.194 -11)" fill="#f1bc19"/>
        <path id="Path_5572" data-name="Path 5572" d="M88.361,22a3.361,3.361,0,1,0,3.361,3.361A3.361,3.361,0,0,0,88.361,22Z" transform="translate(38.278 -3.514)" fill="#8889b9"/>
        <path id="Path_5573" data-name="Path 5573" d="M127.585,84.209a3.361,3.361,0,1,0,3.331,3.361A3.346,3.346,0,0,0,127.585,84.209ZM17.662,59a6.723,6.723,0,1,0,6.662,6.722A6.692,6.692,0,0,0,17.662,59Z" transform="translate(-11 20.582)" fill="#fbcd59"/>
        <path id="Path_5574" data-name="Path 5574" d="M26.361,85a3.361,3.361,0,1,0,3.361,3.361A3.361,3.361,0,0,0,26.361,85Z" transform="translate(-3.009 38.278)" fill="#8889b9"/>
        <path id="Path_5575" data-name="Path 5575" d="M20.16,60.57a4.2,4.2,0,1,0,4.16,4.2A4.181,4.181,0,0,0,20.16,60.57ZM121.657,32a2.521,2.521,0,1,0,2.5,2.521A2.508,2.508,0,0,0,121.657,32Z" transform="translate(-7.597 2.885)" fill="#fff"/>
      </g>
    </g>
    <g id="svgexport-6_1_" data-name="svgexport-6 (1)" transform="translate(453 3586)">
      <g id="Group_17768" data-name="Group 17768" transform="translate(0 0)">
        <g id="Group_17570" data-name="Group 17570" transform="translate(0 0)" opacity="0.6">
          <circle id="Ellipse_344" data-name="Ellipse 344" cx="41" cy="41" r="41" fill="#80d3dd"/>
        </g>
        <g id="Group_17572" data-name="Group 17572" transform="translate(9 9)">
          <g id="Group_17571" data-name="Group 17571" transform="translate(0 0)">
            <circle id="Ellipse_345" data-name="Ellipse 345" cx="32" cy="32" r="32" fill="#a5c3dc"/>
          </g>
        </g>
        <g id="Group_17573" data-name="Group 17573" transform="translate(36 36)">
          <circle id="Ellipse_346" data-name="Ellipse 346" cx="5" cy="5" r="5" fill="#faa019"/>
        </g>
        <g id="Group_17628" data-name="Group 17628" transform="translate(9 9)">
          <g id="Group_17578" data-name="Group 17578" transform="translate(10 1)">
            <g id="Group_17574" data-name="Group 17574" transform="translate(0 0)">
              <ellipse id="Ellipse_347" data-name="Ellipse 347" cx="13" cy="14" rx="13" ry="14" fill="#ffd23c"/>
            </g>
            <g id="Group_17575" data-name="Group 17575" transform="translate(2 3)">
              <ellipse id="Ellipse_348" data-name="Ellipse 348" cx="10.5" cy="11.5" rx="10.5" ry="11.5" fill="#faa019"/>
            </g>
            <g id="Group_17576" data-name="Group 17576" transform="translate(5 7)">
              <ellipse id="Ellipse_349" data-name="Ellipse 349" cx="8" cy="7.5" rx="8" ry="7.5" fill="#ffd23c"/>
            </g>
            <g id="Group_17577" data-name="Group 17577" transform="translate(7 9)">
              <circle id="Ellipse_350" data-name="Ellipse 350" cx="5.5" cy="5.5" r="5.5" fill="#f57828"/>
            </g>
          </g>
          <g id="Group_17583" data-name="Group 17583" transform="translate(28 1)">
            <g id="Group_17579" data-name="Group 17579" transform="translate(0 0)">
              <ellipse id="Ellipse_351" data-name="Ellipse 351" cx="13" cy="14" rx="13" ry="14" fill="#ffd23c"/>
            </g>
            <g id="Group_17580" data-name="Group 17580" transform="translate(3 3)">
              <ellipse id="Ellipse_352" data-name="Ellipse 352" cx="10.5" cy="11.5" rx="10.5" ry="11.5" fill="#faa019"/>
            </g>
            <g id="Group_17581" data-name="Group 17581" transform="translate(5 7)">
              <ellipse id="Ellipse_353" data-name="Ellipse 353" cx="8" cy="7.5" rx="8" ry="7.5" fill="#ffd23c"/>
            </g>
            <g id="Group_17582" data-name="Group 17582" transform="translate(8 9)">
              <circle id="Ellipse_354" data-name="Ellipse 354" cx="5.5" cy="5.5" r="5.5" fill="#f57828"/>
            </g>
          </g>
          <g id="Group_17587" data-name="Group 17587" transform="translate(18 0)">
            <g id="Group_17584" data-name="Group 17584" transform="translate(0 0)">
              <ellipse id="Ellipse_355" data-name="Ellipse 355" cx="14" cy="13.5" rx="14" ry="13.5" fill="#ffd23c"/>
            </g>
            <g id="Group_17585" data-name="Group 17585" transform="translate(3 3)">
              <ellipse id="Ellipse_356" data-name="Ellipse 356" cx="11" cy="10" rx="11" ry="10" fill="#faa019"/>
            </g>
            <g id="Group_17586" data-name="Group 17586" transform="translate(5 4)">
              <ellipse id="Ellipse_357" data-name="Ellipse 357" cx="9" cy="8.5" rx="9" ry="8.5" fill="#ffd23c"/>
            </g>
          </g>
          <g id="Group_17592" data-name="Group 17592" transform="translate(0 18)">
            <g id="Group_17588" data-name="Group 17588" transform="translate(0 0)">
              <ellipse id="Ellipse_358" data-name="Ellipse 358" cx="13.5" cy="14" rx="13.5" ry="14" fill="#ffd23c"/>
            </g>
            <g id="Group_17589" data-name="Group 17589" transform="translate(3 3)">
              <ellipse id="Ellipse_359" data-name="Ellipse 359" cx="10" cy="11" rx="10" ry="11" fill="#faa019"/>
            </g>
            <g id="Group_17590" data-name="Group 17590" transform="translate(4 5)">
              <ellipse id="Ellipse_360" data-name="Ellipse 360" cx="8.5" cy="9" rx="8.5" ry="9" fill="#ffd23c"/>
            </g>
            <g id="Group_17591" data-name="Group 17591" transform="translate(8 9)">
              <circle id="Ellipse_361" data-name="Ellipse 361" cx="5" cy="5" r="5" fill="#f57828"/>
            </g>
          </g>
          <g id="Group_17596" data-name="Group 17596" transform="translate(1 10)">
            <g id="Group_17593" data-name="Group 17593" transform="translate(0 0)">
              <ellipse id="Ellipse_362" data-name="Ellipse 362" cx="14" cy="13" rx="14" ry="13" fill="#ffd23c"/>
            </g>
            <g id="Group_17594" data-name="Group 17594" transform="translate(3 2)">
              <ellipse id="Ellipse_363" data-name="Ellipse 363" cx="11.5" cy="10.5" rx="11.5" ry="10.5" fill="#faa019"/>
            </g>
            <g id="Group_17595" data-name="Group 17595" transform="translate(7 5)">
              <ellipse id="Ellipse_364" data-name="Ellipse 364" cx="7.5" cy="8" rx="7.5" ry="8" fill="#ffd23c"/>
            </g>
          </g>
          <g id="Group_17601" data-name="Group 17601" transform="translate(10 35)">
            <g id="Group_17597" data-name="Group 17597" transform="translate(0 0)">
              <ellipse id="Ellipse_365" data-name="Ellipse 365" cx="13" cy="14" rx="13" ry="14" fill="#ffd23c"/>
            </g>
            <g id="Group_17598" data-name="Group 17598" transform="translate(2 2)">
              <ellipse id="Ellipse_366" data-name="Ellipse 366" cx="10.5" cy="11.5" rx="10.5" ry="11.5" fill="#faa019"/>
            </g>
            <g id="Group_17599" data-name="Group 17599" transform="translate(5 6)">
              <ellipse id="Ellipse_367" data-name="Ellipse 367" cx="8" cy="7.5" rx="8" ry="7.5" fill="#ffd23c"/>
            </g>
            <g id="Group_17600" data-name="Group 17600" transform="translate(7 8)">
              <circle id="Ellipse_368" data-name="Ellipse 368" cx="5.5" cy="5.5" r="5.5" fill="#f57828"/>
            </g>
          </g>
          <g id="Group_17605" data-name="Group 17605" transform="translate(1 28)">
            <g id="Group_17602" data-name="Group 17602" transform="translate(0 0)">
              <ellipse id="Ellipse_369" data-name="Ellipse 369" cx="14" cy="13" rx="14" ry="13" fill="#ffd23c"/>
            </g>
            <g id="Group_17603" data-name="Group 17603" transform="translate(3 3)">
              <ellipse id="Ellipse_370" data-name="Ellipse 370" cx="11.5" cy="10.5" rx="11.5" ry="10.5" fill="#faa019"/>
            </g>
            <g id="Group_17604" data-name="Group 17604" transform="translate(7 5)">
              <ellipse id="Ellipse_371" data-name="Ellipse 371" cx="7.5" cy="8" rx="7.5" ry="8" fill="#ffd23c"/>
            </g>
          </g>
          <g id="Group_17610" data-name="Group 17610" transform="translate(28 35)">
            <g id="Group_17606" data-name="Group 17606" transform="translate(0 0)">
              <ellipse id="Ellipse_372" data-name="Ellipse 372" cx="13" cy="14" rx="13" ry="14" fill="#ffd23c"/>
            </g>
            <g id="Group_17607" data-name="Group 17607" transform="translate(3 2)">
              <ellipse id="Ellipse_373" data-name="Ellipse 373" cx="10.5" cy="11.5" rx="10.5" ry="11.5" fill="#faa019"/>
            </g>
            <g id="Group_17608" data-name="Group 17608" transform="translate(5 6)">
              <ellipse id="Ellipse_374" data-name="Ellipse 374" cx="8" cy="7.5" rx="8" ry="7.5" fill="#ffd23c"/>
            </g>
            <g id="Group_17609" data-name="Group 17609" transform="translate(8 8)">
              <circle id="Ellipse_375" data-name="Ellipse 375" cx="5.5" cy="5.5" r="5.5" fill="#f57828"/>
            </g>
          </g>
          <g id="Group_17614" data-name="Group 17614" transform="translate(18 37)">
            <g id="Group_17611" data-name="Group 17611" transform="translate(0 0)">
              <ellipse id="Ellipse_376" data-name="Ellipse 376" cx="14" cy="13.5" rx="14" ry="13.5" fill="#ffd23c"/>
            </g>
            <g id="Group_17612" data-name="Group 17612" transform="translate(3 4)">
              <ellipse id="Ellipse_377" data-name="Ellipse 377" cx="11" cy="10" rx="11" ry="10" fill="#faa019"/>
            </g>
            <g id="Group_17613" data-name="Group 17613" transform="translate(5 6)">
              <ellipse id="Ellipse_378" data-name="Ellipse 378" cx="9" cy="8.5" rx="9" ry="8.5" fill="#ffd23c"/>
            </g>
          </g>
          <g id="Group_17619" data-name="Group 17619" transform="translate(37 18)">
            <g id="Group_17615" data-name="Group 17615" transform="translate(0 0)">
              <ellipse id="Ellipse_379" data-name="Ellipse 379" cx="13.5" cy="14" rx="13.5" ry="14" fill="#ffd23c"/>
            </g>
            <g id="Group_17616" data-name="Group 17616" transform="translate(4 3)">
              <ellipse id="Ellipse_380" data-name="Ellipse 380" cx="10" cy="11" rx="10" ry="11" fill="#faa019"/>
            </g>
            <g id="Group_17617" data-name="Group 17617" transform="translate(6 5)">
              <ellipse id="Ellipse_381" data-name="Ellipse 381" cx="8.5" cy="9" rx="8.5" ry="9" fill="#ffd23c"/>
            </g>
            <g id="Group_17618" data-name="Group 17618" transform="translate(9 9)">
              <circle id="Ellipse_382" data-name="Ellipse 382" cx="5" cy="5" r="5" fill="#f57828"/>
            </g>
          </g>
          <g id="Group_17623" data-name="Group 17623" transform="translate(35 28)">
            <g id="Group_17620" data-name="Group 17620" transform="translate(0 0)">
              <ellipse id="Ellipse_383" data-name="Ellipse 383" cx="14" cy="13" rx="14" ry="13" fill="#ffd23c"/>
            </g>
            <g id="Group_17621" data-name="Group 17621" transform="translate(2 3)">
              <ellipse id="Ellipse_384" data-name="Ellipse 384" cx="11.5" cy="10.5" rx="11.5" ry="10.5" fill="#faa019"/>
            </g>
            <g id="Group_17622" data-name="Group 17622" transform="translate(6 5)">
              <ellipse id="Ellipse_385" data-name="Ellipse 385" cx="7.5" cy="8" rx="7.5" ry="8" fill="#ffd23c"/>
            </g>
          </g>
          <g id="Group_17627" data-name="Group 17627" transform="translate(35 10)">
            <g id="Group_17624" data-name="Group 17624" transform="translate(0 0)">
              <ellipse id="Ellipse_386" data-name="Ellipse 386" cx="14" cy="13" rx="14" ry="13" fill="#ffd23c"/>
            </g>
            <g id="Group_17625" data-name="Group 17625" transform="translate(2 2)">
              <ellipse id="Ellipse_387" data-name="Ellipse 387" cx="11.5" cy="10.5" rx="11.5" ry="10.5" fill="#faa019"/>
            </g>
            <g id="Group_17626" data-name="Group 17626" transform="translate(6 5)">
              <ellipse id="Ellipse_388" data-name="Ellipse 388" cx="7.5" cy="8" rx="7.5" ry="8" fill="#ffd23c"/>
            </g>
          </g>
        </g>
        <g id="Group_17629" data-name="Group 17629" transform="translate(19 45)">
          <circle id="Ellipse_389" data-name="Ellipse 389" cx="5.5" cy="5.5" r="5.5" fill="#faa019"/>
        </g>
        <g id="Group_17630" data-name="Group 17630" transform="translate(36 55)">
          <circle id="Ellipse_390" data-name="Ellipse 390" cx="5" cy="5" r="5" fill="#faa019"/>
        </g>
        <g id="Group_17631" data-name="Group 17631" transform="translate(52 45)">
          <circle id="Ellipse_391" data-name="Ellipse 391" cx="5.5" cy="5.5" r="5.5" fill="#faa019"/>
        </g>
        <g id="Group_17632" data-name="Group 17632" transform="translate(52 26)">
          <circle id="Ellipse_392" data-name="Ellipse 392" cx="5.5" cy="5.5" r="5.5" fill="#faa019"/>
        </g>
        <g id="Group_17633" data-name="Group 17633" transform="translate(36 17)">
          <circle id="Ellipse_393" data-name="Ellipse 393" cx="5" cy="5" r="5" fill="#faa019"/>
        </g>
        <g id="Group_17638" data-name="Group 17638" transform="translate(27 19)">
          <g id="Group_17634" data-name="Group 17634" transform="translate(0 0)">
            <ellipse id="Ellipse_394" data-name="Ellipse 394" cx="14" cy="13.5" rx="14" ry="13.5" fill="#ffd23c"/>
          </g>
          <g id="Group_17635" data-name="Group 17635" transform="translate(3 3)">
            <circle id="Ellipse_395" data-name="Ellipse 395" cx="11" cy="11" r="11" fill="#faa019"/>
          </g>
          <g id="Group_17636" data-name="Group 17636" transform="translate(5 7)">
            <ellipse id="Ellipse_396" data-name="Ellipse 396" cx="9" cy="7.5" rx="9" ry="7.5" fill="#ffd23c"/>
          </g>
          <g id="Group_17637" data-name="Group 17637" transform="translate(9 8)">
            <ellipse id="Ellipse_397" data-name="Ellipse 397" cx="5" cy="5.5" rx="5" ry="5.5" fill="#faa019"/>
          </g>
        </g>
        <g id="Group_17643" data-name="Group 17643" transform="translate(27 36)">
          <g id="Group_17639" data-name="Group 17639" transform="translate(0 0)">
            <ellipse id="Ellipse_398" data-name="Ellipse 398" cx="14" cy="13.5" rx="14" ry="13.5" fill="#ffd23c"/>
          </g>
          <g id="Group_17640" data-name="Group 17640" transform="translate(3 2)">
            <circle id="Ellipse_399" data-name="Ellipse 399" cx="11" cy="11" r="11" fill="#faa019"/>
          </g>
          <g id="Group_17641" data-name="Group 17641" transform="translate(5 5)">
            <ellipse id="Ellipse_400" data-name="Ellipse 400" cx="9" cy="7.5" rx="9" ry="7.5" fill="#ffd23c"/>
          </g>
          <g id="Group_17642" data-name="Group 17642" transform="translate(9 8)">
            <ellipse id="Ellipse_401" data-name="Ellipse 401" cx="5" cy="5.5" rx="5" ry="5.5" fill="#faa019"/>
          </g>
        </g>
        <g id="Group_17644" data-name="Group 17644" transform="translate(19 26)">
          <circle id="Ellipse_402" data-name="Ellipse 402" cx="5.5" cy="5.5" r="5.5" fill="#faa019"/>
        </g>
        <g id="Group_17650" data-name="Group 17650" transform="translate(19 27)">
          <g id="Group_17645" data-name="Group 17645" transform="translate(0 0)">
            <ellipse id="Ellipse_403" data-name="Ellipse 403" cx="13.5" cy="14" rx="13.5" ry="14" fill="#ffd23c"/>
          </g>
          <g id="Group_17646" data-name="Group 17646" transform="translate(3 3)">
            <circle id="Ellipse_404" data-name="Ellipse 404" cx="11" cy="11" r="11" fill="#faa019"/>
          </g>
          <g id="Group_17647" data-name="Group 17647" transform="translate(7 5)">
            <ellipse id="Ellipse_405" data-name="Ellipse 405" cx="7.5" cy="9" rx="7.5" ry="9" fill="#ffd23c"/>
          </g>
          <g id="Group_17648" data-name="Group 17648" transform="translate(8 9)">
            <ellipse id="Ellipse_406" data-name="Ellipse 406" cx="5.5" cy="5" rx="5.5" ry="5" fill="#faa019"/>
          </g>
          <g id="Group_17649" data-name="Group 17649" transform="translate(11 11)">
            <circle id="Ellipse_407" data-name="Ellipse 407" cx="3" cy="3" r="3" fill="#ffd23c"/>
          </g>
        </g>
        <g id="Group_17656" data-name="Group 17656" transform="translate(36 27)">
          <g id="Group_17651" data-name="Group 17651" transform="translate(0 0)">
            <ellipse id="Ellipse_408" data-name="Ellipse 408" cx="13.5" cy="14" rx="13.5" ry="14" fill="#ffd23c"/>
          </g>
          <g id="Group_17652" data-name="Group 17652" transform="translate(2 3)">
            <circle id="Ellipse_409" data-name="Ellipse 409" cx="11" cy="11" r="11" fill="#faa019"/>
          </g>
          <g id="Group_17653" data-name="Group 17653" transform="translate(5 5)">
            <ellipse id="Ellipse_410" data-name="Ellipse 410" cx="7.5" cy="9" rx="7.5" ry="9" fill="#ffd23c"/>
          </g>
          <g id="Group_17654" data-name="Group 17654" transform="translate(8 9)">
            <ellipse id="Ellipse_411" data-name="Ellipse 411" cx="5.5" cy="5" rx="5.5" ry="5" fill="#faa019"/>
          </g>
          <g id="Group_17655" data-name="Group 17655" transform="translate(10 11)">
            <circle id="Ellipse_412" data-name="Ellipse 412" cx="3" cy="3" r="3" fill="#ffd23c"/>
          </g>
        </g>
        <g id="Group_17663" data-name="Group 17663" transform="translate(36.454 46.91)">
          <g id="Group_17657" data-name="Group 17657" transform="translate(12.273 7.528)">
            <circle id="Ellipse_413" data-name="Ellipse 413" cx="0.682" cy="0.682" r="0.682" fill="#5faa46"/>
          </g>
          <g id="Group_17658" data-name="Group 17658" transform="translate(14.546 2.728)">
            <circle id="Ellipse_414" data-name="Ellipse 414" cx="0.682" cy="0.682" r="0.682" fill="#5faa46"/>
          </g>
          <g id="Group_17659" data-name="Group 17659" transform="translate(2.543 4.8)">
            <circle id="Ellipse_415" data-name="Ellipse 415" cx="0.682" cy="0.682" r="0.682" fill="#5faa46"/>
          </g>
          <g id="Group_17660" data-name="Group 17660" transform="translate(6.818)">
            <circle id="Ellipse_416" data-name="Ellipse 416" cx="0.682" cy="0.682" r="0.682" fill="#5faa46"/>
          </g>
          <g id="Group_17661" data-name="Group 17661" transform="translate(5.43 11.665)">
            <circle id="Ellipse_417" data-name="Ellipse 417" cx="0.682" cy="0.682" r="0.682" fill="#5faa46"/>
          </g>
          <g id="Group_17662" data-name="Group 17662" transform="translate(0 9.065)">
            <circle id="Ellipse_418" data-name="Ellipse 418" cx="0.682" cy="0.682" r="0.682" fill="#5faa46"/>
          </g>
        </g>
        <g id="Group_17670" data-name="Group 17670" transform="translate(22.971 51.455)">
          <g id="Group_17664" data-name="Group 17664" transform="translate(7.528 2.273)">
            <circle id="Ellipse_419" data-name="Ellipse 419" cx="0.682" cy="0.682" r="0.682" fill="#5faa46"/>
          </g>
          <g id="Group_17665" data-name="Group 17665" transform="translate(2.728)">
            <circle id="Ellipse_420" data-name="Ellipse 420" cx="0.682" cy="0.682" r="0.682" fill="#5faa46"/>
          </g>
          <g id="Group_17666" data-name="Group 17666" transform="translate(4.8 12.003)">
            <circle id="Ellipse_421" data-name="Ellipse 421" cx="0.682" cy="0.682" r="0.682" fill="#5faa46"/>
          </g>
          <g id="Group_17667" data-name="Group 17667" transform="translate(0 7.728)">
            <circle id="Ellipse_422" data-name="Ellipse 422" cx="0.682" cy="0.682" r="0.682" fill="#5faa46"/>
          </g>
          <g id="Group_17668" data-name="Group 17668" transform="translate(11.665 9.116)">
            <circle id="Ellipse_423" data-name="Ellipse 423" cx="0.682" cy="0.682" r="0.682" fill="#5faa46"/>
          </g>
          <g id="Group_17669" data-name="Group 17669" transform="translate(9.065 14.546)">
            <circle id="Ellipse_424" data-name="Ellipse 424" cx="0.682" cy="0.682" r="0.682" fill="#5faa46"/>
          </g>
        </g>
        <g id="Group_17679" data-name="Group 17679" transform="translate(17.817 19.635)">
          <g id="Group_17671" data-name="Group 17671" transform="translate(24.547 0)">
            <circle id="Ellipse_425" data-name="Ellipse 425" cx="2.727" cy="2.727" r="2.727" fill="#f04b37"/>
          </g>
          <g id="Group_17672" data-name="Group 17672" transform="translate(41.82 10.455)">
            <circle id="Ellipse_426" data-name="Ellipse 426" cx="2.727" cy="2.727" r="2.727" fill="#f04b37"/>
          </g>
          <g id="Group_17673" data-name="Group 17673" transform="translate(6.819 12.273)">
            <circle id="Ellipse_427" data-name="Ellipse 427" cx="2.727" cy="2.727" r="2.727" fill="#f04b37"/>
          </g>
          <g id="Group_17674" data-name="Group 17674" transform="translate(0 27.274)">
            <circle id="Ellipse_428" data-name="Ellipse 428" cx="2.727" cy="2.727" r="2.727" fill="#f04b37"/>
          </g>
          <g id="Group_17675" data-name="Group 17675" transform="translate(19.547 37.729)">
            <circle id="Ellipse_429" data-name="Ellipse 429" cx="2.727" cy="2.727" r="2.727" fill="#f04b37"/>
          </g>
          <g id="Group_17676" data-name="Group 17676" transform="translate(40.457 33.638)">
            <circle id="Ellipse_430" data-name="Ellipse 430" cx="2.727" cy="2.727" r="2.727" fill="#f04b37"/>
          </g>
          <g id="Group_17677" data-name="Group 17677" transform="translate(0 5.455)">
            <circle id="Ellipse_431" data-name="Ellipse 431" cx="2.727" cy="2.727" r="2.727" fill="#f04b37"/>
          </g>
          <g id="Group_17678" data-name="Group 17678" transform="translate(29.093 11.819)">
            <circle id="Ellipse_432" data-name="Ellipse 432" cx="2.727" cy="2.727" r="2.727" fill="#f04b37"/>
          </g>
        </g>
        <g id="Group_17686" data-name="Group 17686" transform="translate(39.636 37.818)">
          <g id="Group_17680" data-name="Group 17680" transform="translate(12.273 7.528)">
            <circle id="Ellipse_433" data-name="Ellipse 433" cx="0.682" cy="0.682" r="0.682" fill="#5faa46"/>
          </g>
          <g id="Group_17681" data-name="Group 17681" transform="translate(14.546 2.728)">
            <circle id="Ellipse_434" data-name="Ellipse 434" cx="0.682" cy="0.682" r="0.682" fill="#5faa46"/>
          </g>
          <g id="Group_17682" data-name="Group 17682" transform="translate(2.543 4.8)">
            <circle id="Ellipse_435" data-name="Ellipse 435" cx="0.682" cy="0.682" r="0.682" fill="#5faa46"/>
          </g>
          <g id="Group_17683" data-name="Group 17683" transform="translate(6.818)">
            <circle id="Ellipse_436" data-name="Ellipse 436" cx="0.682" cy="0.682" r="0.682" fill="#5faa46"/>
          </g>
          <g id="Group_17684" data-name="Group 17684" transform="translate(5.43 11.665)">
            <circle id="Ellipse_437" data-name="Ellipse 437" cx="0.682" cy="0.682" r="0.682" fill="#5faa46"/>
          </g>
          <g id="Group_17685" data-name="Group 17685" transform="translate(0 9.065)">
            <circle id="Ellipse_438" data-name="Ellipse 438" cx="0.682" cy="0.682" r="0.682" fill="#5faa46"/>
          </g>
        </g>
        <g id="Group_17693" data-name="Group 17693" transform="translate(25.09 24.334)">
          <g id="Group_17687" data-name="Group 17687" transform="translate(12.273 7.528)">
            <circle id="Ellipse_439" data-name="Ellipse 439" cx="0.682" cy="0.682" r="0.682" fill="#5faa46"/>
          </g>
          <g id="Group_17688" data-name="Group 17688" transform="translate(14.546 2.728)">
            <circle id="Ellipse_440" data-name="Ellipse 440" cx="0.682" cy="0.682" r="0.682" fill="#5faa46"/>
          </g>
          <g id="Group_17689" data-name="Group 17689" transform="translate(2.543 4.8)">
            <circle id="Ellipse_441" data-name="Ellipse 441" cx="0.682" cy="0.682" r="0.682" fill="#5faa46"/>
          </g>
          <g id="Group_17690" data-name="Group 17690" transform="translate(6.818)">
            <circle id="Ellipse_442" data-name="Ellipse 442" cx="0.682" cy="0.682" r="0.682" fill="#5faa46"/>
          </g>
          <g id="Group_17691" data-name="Group 17691" transform="translate(5.43 11.665)">
            <circle id="Ellipse_443" data-name="Ellipse 443" cx="0.682" cy="0.682" r="0.682" fill="#5faa46"/>
          </g>
          <g id="Group_17692" data-name="Group 17692" transform="translate(0 9.065)">
            <circle id="Ellipse_444" data-name="Ellipse 444" cx="0.682" cy="0.682" r="0.682" fill="#5faa46"/>
          </g>
        </g>
        <g id="Group_17700" data-name="Group 17700" transform="translate(19.635 44.637)">
          <g id="Group_17694" data-name="Group 17694" transform="translate(12.273 7.528)">
            <circle id="Ellipse_445" data-name="Ellipse 445" cx="0.682" cy="0.682" r="0.682" fill="#5faa46"/>
          </g>
          <g id="Group_17695" data-name="Group 17695" transform="translate(14.546 2.728)">
            <circle id="Ellipse_446" data-name="Ellipse 446" cx="0.682" cy="0.682" r="0.682" fill="#5faa46"/>
          </g>
          <g id="Group_17696" data-name="Group 17696" transform="translate(2.543 4.8)">
            <circle id="Ellipse_447" data-name="Ellipse 447" cx="0.682" cy="0.682" r="0.682" fill="#5faa46"/>
          </g>
          <g id="Group_17697" data-name="Group 17697" transform="translate(6.818)">
            <circle id="Ellipse_448" data-name="Ellipse 448" cx="0.682" cy="0.682" r="0.682" fill="#5faa46"/>
          </g>
          <g id="Group_17698" data-name="Group 17698" transform="translate(5.43 11.665)">
            <circle id="Ellipse_449" data-name="Ellipse 449" cx="0.682" cy="0.682" r="0.682" fill="#5faa46"/>
          </g>
          <g id="Group_17699" data-name="Group 17699" transform="translate(0 9.065)">
            <circle id="Ellipse_450" data-name="Ellipse 450" cx="0.682" cy="0.682" r="0.682" fill="#5faa46"/>
          </g>
        </g>
        <g id="Group_17707" data-name="Group 17707" transform="translate(55.092 36.454)">
          <g id="Group_17701" data-name="Group 17701" transform="translate(12.273 7.528)">
            <circle id="Ellipse_451" data-name="Ellipse 451" cx="0.682" cy="0.682" r="0.682" fill="#5faa46"/>
          </g>
          <g id="Group_17702" data-name="Group 17702" transform="translate(14.546 2.728)">
            <circle id="Ellipse_452" data-name="Ellipse 452" cx="0.682" cy="0.682" r="0.682" fill="#5faa46"/>
          </g>
          <g id="Group_17703" data-name="Group 17703" transform="translate(2.543 4.8)">
            <circle id="Ellipse_453" data-name="Ellipse 453" cx="0.682" cy="0.682" r="0.682" fill="#5faa46"/>
          </g>
          <g id="Group_17704" data-name="Group 17704" transform="translate(6.818)">
            <circle id="Ellipse_454" data-name="Ellipse 454" cx="0.682" cy="0.682" r="0.682" fill="#5faa46"/>
          </g>
          <g id="Group_17705" data-name="Group 17705" transform="translate(5.43 11.665)">
            <circle id="Ellipse_455" data-name="Ellipse 455" cx="0.682" cy="0.682" r="0.682" fill="#5faa46"/>
          </g>
          <g id="Group_17706" data-name="Group 17706" transform="translate(0 9.065)">
            <circle id="Ellipse_456" data-name="Ellipse 456" cx="0.682" cy="0.682" r="0.682" fill="#5faa46"/>
          </g>
        </g>
        <g id="Group_17714" data-name="Group 17714" transform="translate(44.713 14.257)">
          <g id="Group_17708" data-name="Group 17708" transform="translate(7.528 2.273)">
            <circle id="Ellipse_457" data-name="Ellipse 457" cx="0.682" cy="0.682" r="0.682" fill="#5faa46"/>
          </g>
          <g id="Group_17709" data-name="Group 17709" transform="translate(2.728 0)">
            <circle id="Ellipse_458" data-name="Ellipse 458" cx="0.682" cy="0.682" r="0.682" fill="#5faa46"/>
          </g>
          <g id="Group_17710" data-name="Group 17710" transform="translate(4.8 12.003)">
            <circle id="Ellipse_459" data-name="Ellipse 459" cx="0.682" cy="0.682" r="0.682" fill="#5faa46"/>
          </g>
          <g id="Group_17711" data-name="Group 17711" transform="translate(0 7.728)">
            <circle id="Ellipse_460" data-name="Ellipse 460" cx="0.682" cy="0.682" r="0.682" fill="#5faa46"/>
          </g>
          <g id="Group_17712" data-name="Group 17712" transform="translate(11.665 9.116)">
            <circle id="Ellipse_461" data-name="Ellipse 461" cx="0.682" cy="0.682" r="0.682" fill="#5faa46"/>
          </g>
          <g id="Group_17713" data-name="Group 17713" transform="translate(9.065 14.546)">
            <circle id="Ellipse_462" data-name="Ellipse 462" cx="0.682" cy="0.682" r="0.682" fill="#5faa46"/>
          </g>
        </g>
        <g id="Group_17721" data-name="Group 17721" transform="translate(24 15.544)">
          <g id="Group_17715" data-name="Group 17715" transform="translate(6.8 2.273)">
            <circle id="Ellipse_463" data-name="Ellipse 463" cx="0.682" cy="0.682" r="0.682" fill="#5faa46"/>
          </g>
          <g id="Group_17716" data-name="Group 17716" transform="translate(1.999)">
            <circle id="Ellipse_464" data-name="Ellipse 464" cx="0.682" cy="0.682" r="0.682" fill="#5faa46"/>
          </g>
          <g id="Group_17717" data-name="Group 17717" transform="translate(4.072 12.003)">
            <circle id="Ellipse_465" data-name="Ellipse 465" cx="0.682" cy="0.682" r="0.682" fill="#5faa46"/>
          </g>
          <g id="Group_17718" data-name="Group 17718" transform="translate(0 8.456)">
            <circle id="Ellipse_466" data-name="Ellipse 466" cx="1" cy="1" r="1" fill="#5faa46"/>
          </g>
          <g id="Group_17719" data-name="Group 17719" transform="translate(10.937 9.116)">
            <circle id="Ellipse_467" data-name="Ellipse 467" cx="0.682" cy="0.682" r="0.682" fill="#5faa46"/>
          </g>
          <g id="Group_17720" data-name="Group 17720" transform="translate(8.336 14.546)">
            <circle id="Ellipse_468" data-name="Ellipse 468" cx="0.682" cy="0.682" r="0.682" fill="#5faa46"/>
          </g>
        </g>
        <g id="Group_17743" data-name="Group 17743" transform="translate(22.817 22.644)">
          <g id="Group_17722" data-name="Group 17722" transform="translate(30.479 4.719)">
            <circle id="Ellipse_469" data-name="Ellipse 469" cx="0.682" cy="0.682" r="0.682" fill="#d7e6f0"/>
          </g>
          <g id="Group_17723" data-name="Group 17723" transform="translate(24.654 8.399)">
            <circle id="Ellipse_470" data-name="Ellipse 470" cx="0.682" cy="0.682" r="0.682" fill="#d7e6f0"/>
          </g>
          <g id="Group_17724" data-name="Group 17724" transform="translate(18.949)">
            <circle id="Ellipse_471" data-name="Ellipse 471" cx="0.682" cy="0.682" r="0.682" fill="#d7e6f0"/>
          </g>
          <g id="Group_17725" data-name="Group 17725" transform="translate(9.932 7.325)">
            <circle id="Ellipse_472" data-name="Ellipse 472" cx="0.682" cy="0.682" r="0.682" fill="#d7e6f0"/>
          </g>
          <g id="Group_17726" data-name="Group 17726" transform="translate(5.583 4.8)">
            <circle id="Ellipse_473" data-name="Ellipse 473" cx="0.682" cy="0.682" r="0.682" fill="#d7e6f0"/>
          </g>
          <g id="Group_17727" data-name="Group 17727" transform="translate(15.32 0.749)">
            <circle id="Ellipse_474" data-name="Ellipse 474" cx="0.682" cy="0.682" r="0.682" fill="#d7e6f0"/>
          </g>
          <g id="Group_17728" data-name="Group 17728" transform="translate(6.011 23.281)">
            <circle id="Ellipse_475" data-name="Ellipse 475" cx="0.682" cy="0.682" r="0.682" fill="#d7e6f0"/>
          </g>
          <g id="Group_17729" data-name="Group 17729" transform="translate(0 20.96)">
            <circle id="Ellipse_476" data-name="Ellipse 476" cx="0.682" cy="0.682" r="0.682" fill="#d7e6f0"/>
          </g>
          <g id="Group_17730" data-name="Group 17730" transform="translate(4.497 11.731)">
            <circle id="Ellipse_477" data-name="Ellipse 477" cx="0.682" cy="0.682" r="0.682" fill="#d7e6f0"/>
          </g>
          <g id="Group_17731" data-name="Group 17731" transform="translate(27.822 25.396)">
            <circle id="Ellipse_478" data-name="Ellipse 478" cx="0.682" cy="0.682" r="0.682" fill="#d7e6f0"/>
          </g>
          <g id="Group_17732" data-name="Group 17732" transform="translate(19.227 20.724)">
            <circle id="Ellipse_479" data-name="Ellipse 479" cx="0.682" cy="0.682" r="0.682" fill="#d7e6f0"/>
          </g>
          <g id="Group_17733" data-name="Group 17733" transform="translate(20.634 13.835)">
            <circle id="Ellipse_480" data-name="Ellipse 480" cx="0.682" cy="0.682" r="0.682" fill="#d7e6f0"/>
          </g>
          <g id="Group_17734" data-name="Group 17734" transform="translate(36.003 22.125)">
            <circle id="Ellipse_481" data-name="Ellipse 481" cx="0.682" cy="0.682" r="0.682" fill="#d7e6f0"/>
          </g>
          <g id="Group_17735" data-name="Group 17735" transform="translate(27.182 16.071)">
            <circle id="Ellipse_482" data-name="Ellipse 482" cx="0.682" cy="0.682" r="0.682" fill="#d7e6f0"/>
          </g>
          <g id="Group_17736" data-name="Group 17736" transform="translate(34.7 12.666)">
            <circle id="Ellipse_483" data-name="Ellipse 483" cx="0.682" cy="0.682" r="0.682" fill="#d7e6f0"/>
          </g>
          <g id="Group_17737" data-name="Group 17737" transform="translate(8.707 34.265)">
            <circle id="Ellipse_484" data-name="Ellipse 484" cx="0.682" cy="0.682" r="0.682" fill="#d7e6f0"/>
          </g>
          <g id="Group_17738" data-name="Group 17738" transform="translate(4.578 31.665)">
            <circle id="Ellipse_485" data-name="Ellipse 485" cx="0.682" cy="0.682" r="0.682" fill="#d7e6f0"/>
          </g>
          <g id="Group_17739" data-name="Group 17739" transform="translate(12.464 21.913)">
            <circle id="Ellipse_486" data-name="Ellipse 486" cx="0.682" cy="0.682" r="0.682" fill="#d7e6f0"/>
          </g>
          <g id="Group_17740" data-name="Group 17740" transform="translate(22.066 33.792)">
            <circle id="Ellipse_487" data-name="Ellipse 487" cx="0.682" cy="0.682" r="0.682" fill="#d7e6f0"/>
          </g>
          <g id="Group_17741" data-name="Group 17741" transform="translate(23.221 29.475)">
            <circle id="Ellipse_488" data-name="Ellipse 488" cx="0.682" cy="0.682" r="0.682" fill="#d7e6f0"/>
          </g>
          <g id="Group_17742" data-name="Group 17742" transform="translate(30.194 30.386)">
            <circle id="Ellipse_489" data-name="Ellipse 489" cx="0.682" cy="0.682" r="0.682" fill="#d7e6f0"/>
          </g>
        </g>
        <g id="Group_17765" data-name="Group 17765" transform="translate(18.634 18.271)">
          <g id="Group_17744" data-name="Group 17744" transform="translate(30.479 4.719)">
            <circle id="Ellipse_490" data-name="Ellipse 490" cx="0.682" cy="0.682" r="0.682" fill="#d7e6f0"/>
          </g>
          <g id="Group_17745" data-name="Group 17745" transform="translate(24.654 8.399)">
            <circle id="Ellipse_491" data-name="Ellipse 491" cx="0.682" cy="0.682" r="0.682" fill="#d7e6f0"/>
          </g>
          <g id="Group_17746" data-name="Group 17746" transform="translate(18.949 0)">
            <circle id="Ellipse_492" data-name="Ellipse 492" cx="0.682" cy="0.682" r="0.682" fill="#d7e6f0"/>
          </g>
          <g id="Group_17747" data-name="Group 17747" transform="translate(9.932 7.325)">
            <circle id="Ellipse_493" data-name="Ellipse 493" cx="0.682" cy="0.682" r="0.682" fill="#d7e6f0"/>
          </g>
          <g id="Group_17748" data-name="Group 17748" transform="translate(5.583 4.8)">
            <circle id="Ellipse_494" data-name="Ellipse 494" cx="0.682" cy="0.682" r="0.682" fill="#d7e6f0"/>
          </g>
          <g id="Group_17749" data-name="Group 17749" transform="translate(15.32 0.749)">
            <circle id="Ellipse_495" data-name="Ellipse 495" cx="0.682" cy="0.682" r="0.682" fill="#d7e6f0"/>
          </g>
          <g id="Group_17750" data-name="Group 17750" transform="translate(6.011 23.281)">
            <circle id="Ellipse_496" data-name="Ellipse 496" cx="0.682" cy="0.682" r="0.682" fill="#d7e6f0"/>
          </g>
          <g id="Group_17751" data-name="Group 17751" transform="translate(0 20.96)">
            <circle id="Ellipse_497" data-name="Ellipse 497" cx="0.682" cy="0.682" r="0.682" fill="#d7e6f0"/>
          </g>
          <g id="Group_17752" data-name="Group 17752" transform="translate(4.497 11.731)">
            <circle id="Ellipse_498" data-name="Ellipse 498" cx="0.682" cy="0.682" r="0.682" fill="#d7e6f0"/>
          </g>
          <g id="Group_17753" data-name="Group 17753" transform="translate(27.822 25.396)">
            <circle id="Ellipse_499" data-name="Ellipse 499" cx="0.682" cy="0.682" r="0.682" fill="#d7e6f0"/>
          </g>
          <g id="Group_17754" data-name="Group 17754" transform="translate(19.227 20.724)">
            <circle id="Ellipse_500" data-name="Ellipse 500" cx="0.682" cy="0.682" r="0.682" fill="#d7e6f0"/>
          </g>
          <g id="Group_17755" data-name="Group 17755" transform="translate(20.634 13.835)">
            <circle id="Ellipse_501" data-name="Ellipse 501" cx="0.682" cy="0.682" r="0.682" fill="#d7e6f0"/>
          </g>
          <g id="Group_17756" data-name="Group 17756" transform="translate(36.003 22.125)">
            <circle id="Ellipse_502" data-name="Ellipse 502" cx="0.682" cy="0.682" r="0.682" fill="#d7e6f0"/>
          </g>
          <g id="Group_17757" data-name="Group 17757" transform="translate(27.182 16.071)">
            <circle id="Ellipse_503" data-name="Ellipse 503" cx="0.682" cy="0.682" r="0.682" fill="#d7e6f0"/>
          </g>
          <g id="Group_17758" data-name="Group 17758" transform="translate(34.7 12.666)">
            <circle id="Ellipse_504" data-name="Ellipse 504" cx="0.682" cy="0.682" r="0.682" fill="#d7e6f0"/>
          </g>
          <g id="Group_17759" data-name="Group 17759" transform="translate(8.707 34.265)">
            <circle id="Ellipse_505" data-name="Ellipse 505" cx="0.682" cy="0.682" r="0.682" fill="#d7e6f0"/>
          </g>
          <g id="Group_17760" data-name="Group 17760" transform="translate(4.578 31.665)">
            <circle id="Ellipse_506" data-name="Ellipse 506" cx="0.682" cy="0.682" r="0.682" fill="#d7e6f0"/>
          </g>
          <g id="Group_17761" data-name="Group 17761" transform="translate(12.464 21.913)">
            <circle id="Ellipse_507" data-name="Ellipse 507" cx="0.682" cy="0.682" r="0.682" fill="#d7e6f0"/>
          </g>
          <g id="Group_17762" data-name="Group 17762" transform="translate(22.066 33.792)">
            <circle id="Ellipse_508" data-name="Ellipse 508" cx="0.682" cy="0.682" r="0.682" fill="#d7e6f0"/>
          </g>
          <g id="Group_17763" data-name="Group 17763" transform="translate(23.221 29.475)">
            <circle id="Ellipse_509" data-name="Ellipse 509" cx="0.682" cy="0.682" r="0.682" fill="#d7e6f0"/>
          </g>
          <g id="Group_17764" data-name="Group 17764" transform="translate(30.194 30.386)">
            <circle id="Ellipse_510" data-name="Ellipse 510" cx="0.682" cy="0.682" r="0.682" fill="#d7e6f0"/>
          </g>
        </g>
        <g id="Group_17767" data-name="Group 17767" transform="translate(28.726 31.454)">
          <path id="Path_5705" data-name="Path 5705" d="M238.337,201.68l-1.281-1.281a1.364,1.364,0,0,0-1.929,0l-1.281,1.281a6.3,6.3,0,0,0,0,8.913l1.281,1.281a1.364,1.364,0,0,0,1.929,0l1.281-1.281a6.3,6.3,0,0,0,0-8.913Z" transform="translate(-223.818 -200)" fill="#69a041"/>
          <path id="Path_5706" data-name="Path 5706" d="M267.873,251.127l-1.281-1.281a6.3,6.3,0,0,0-8.913,0l-1.281,1.281a1.364,1.364,0,0,0,0,1.929l1.281,1.281a6.3,6.3,0,0,0,8.913,0l1.281-1.281A1.364,1.364,0,0,0,267.873,251.127Z" transform="translate(-243.726 -239.818)" fill="#4b8c41"/>
          <path id="Path_5707" data-name="Path 5707" d="M195.873,251.127l-1.281-1.281a6.3,6.3,0,0,0-8.913,0l-1.281,1.281a1.363,1.363,0,0,0,0,1.929l1.281,1.281a6.3,6.3,0,0,0,8.913,0l1.281-1.281A1.364,1.364,0,0,0,195.873,251.127Z" transform="translate(-183.999 -239.818)" fill="#4b8c41"/>
          <g id="Group_17766" data-name="Group 17766" transform="translate(10.91 12.273)">
            <path id="Path_5708" data-name="Path 5708" d="M249.364,277.455A1.364,1.364,0,0,1,248,276.091V272h2.727v4.091A1.364,1.364,0,0,1,249.364,277.455Z" transform="translate(-248 -272)" fill="#4b8c41"/>
          </g>
        </g>
      </g>
    </g>
  </g>
</svg>
