<svg xmlns="http://www.w3.org/2000/svg" xmlns:xlink="http://www.w3.org/1999/xlink" width="1920" height="1080" viewBox="0 0 1920 1080">
  <defs>
    <clipPath id="clip-path">
      <path id="Subtraction_16" data-name="Subtraction 16" d="M0,0H1920V1080H0Z" transform="translate(0 0)" fill="#22274e" opacity="0.8"/>
    </clipPath>
  </defs>
  <g id="Group_17965" data-name="Group 17965" transform="translate(872 1359)">
    <g id="Group_17964" data-name="Group 17964" transform="translate(-264 360.999)">
      <g id="Group_17963" data-name="Group 17963" transform="translate(-608 -1719.999)">
        <g id="Mask_Group_217" data-name="Mask Group 217" transform="translate(0 0)" opacity="0.02" clip-path="url(#clip-path)">
          <g id="Group_17962" data-name="Group 17962" transform="translate(0 -0.001)">
            <path id="Path_5820" data-name="Path 5820" d="M1875.073,524.644l-.3.1L1760.61,678.538,1532.6,755.329l-.3.1L1418.138,909.22,1190.13,986.008l-.307.1L1075.667,1139.9l-153.3,51.628h4.6l149.921-50.492.3-.1,114.16-153.785,228.008-76.791.3-.1,114.163-153.789,228-76.788.3-.1L1876.3,525.78l228.008-76.788.308-.1,75.117-101.195v-3.1l-76.651,103.26Zm-28.539-19.22-.3.1-114.16,153.789L1504.063,736.1l-.307.1L1389.6,890l-228.009,76.788-.307.1-114.156,153.785-210.366,70.851h4.6l206.992-69.716.307-.1,114.156-153.782,228.008-76.8.308-.1,114.16-153.789L1733.3,660.447l.3-.1,114.16-153.789,228.008-76.788.3-.1,103.66-139.641v-3.1l-105.19,141.707Zm113.852-384.37L1846.231,274.844l-228.008,76.791-.307.1-114.16,153.789-228.012,76.788-.3.1L1161.284,736.207,933.272,813l-.3.1L818.812,966.889,590.8,1043.677l-.3.1L480.825,1191.526h2.3l108.9-146.713,228.012-76.788.3-.1L934.5,814.131l228.012-76.788.3-.1,114.156-153.789,228.012-76.788.307-.1,114.16-153.789,228.008-76.788.3-.1,114.16-153.789L2179.733,48.73V47.182l-219.039,73.771Zm28.543,19.227L1874.77,294.067l-228.008,76.791-.3.1L1532.3,524.749,1304.286,601.54l-.307.1L1189.823,755.431,961.811,832.219l-.3.1L847.351,986.112,619.339,1062.9l-.3.1-95.4,128.521h2.3l94.633-127.49,228.012-76.788.307-.1L963.037,833.354l228.012-76.788.308-.1,114.152-153.789,228.012-76.788.307-.1,114.16-153.789L1876,295.2l.3-.1,114.163-153.785,189.27-63.747V76.017l-190.5,64.159Zm142.7,557.48L2017.468,851.546l-228.012,76.792-.307.1-114.16,153.785-228.008,76.792-.3.1-24.054,32.4h2.3l23.284-31.37,228.008-76.792.308-.1,114.16-153.785,228.008-76.791.307-.1,114.156-153.785,46.579-15.685v-1.548l-47.8,16.1Zm28.539,19.223L2046.007,870.77,1818,947.561l-.3.1-114.16,153.785-228.009,76.792-.307.1-9.783,13.178h2.3l9.013-12.147,228.008-76.792.308-.1L1819.221,948.7l228.012-76.791.3-.1,114.156-153.786,18.04-6.074v-1.548l-19.266,6.486ZM1932.155,563.09l-.307.1L1817.692,716.984l-228.009,76.788-.307.1-114.16,153.789-228.009,76.791-.3.1-114.16,153.789-39.129,13.178h4.6l35.758-12.046.3-.1,114.16-153.789L1476.442,948.8l.3-.1,114.16-153.789,228.008-76.788.307-.1,114.156-153.789,228.008-76.788.308-.1,18.04-24.3v-3.1L2160.164,486.3Zm-28.539-19.223-.307.1-114.16,153.789-228.008,76.788-.3.1-114.16,153.789-228.008,76.788-.3.1-114.16,153.786-96.214,32.405h4.6l92.84-31.269.3-.1,114.16-153.789L1447.9,929.575l.3-.1,114.16-153.789L1790.375,698.9l.308-.1L1904.838,545l228.008-76.788.308-.1,46.579-62.745v-3.1l-48.108,64.81Zm199.466-326.693L1988.929,370.959l-228.012,76.791-.307.1L1646.454,601.641l-228.012,76.791-.3.1-114.16,153.785L1075.97,909.115l-.3.1-114.16,153.785L733.5,1139.8l-.307.1-38.322,51.628h2.3l37.559-50.6,228.008-76.788.3-.1L1077.2,910.251,1305.2,833.459l.3-.1,114.16-153.786,228.012-76.792.307-.1L1762.14,448.887,1990.152,372.1l.307-.1L2104.619,218.2l75.114-25.3V191.36l-76.344,25.709Zm57.082,38.446L2046.007,409.409,1818,486.2l-.3.1-114.16,153.789-228.009,76.788-.307.1L1361.057,870.77l-228.009,76.792-.3.1-114.16,153.785-228.008,76.792-.3.1-9.783,13.178h2.3l9.016-12.147,228.008-76.792.307-.1L1134.274,948.7l228.008-76.791.308-.1,114.16-153.786,228-76.791.308-.1,114.16-153.789,228.012-76.791.3-.1,114.156-153.789,18.04-6.074v-1.548l-19.266,6.486ZM2131.625,236.4l-114.16,153.789-228.008,76.788-.307.1-114.16,153.786-228.008,76.792-.3.1-114.16,153.785-228.008,76.792-.3.1L990.046,1082.228,762.038,1159.02l-.3.1-24.054,32.4h2.3l23.284-31.37,228.008-76.792.3-.1,114.159-153.785,228.008-76.791.307-.1,114.156-153.785L1676.215,622l.308-.1,114.16-153.782,228.008-76.8.307-.1,114.156-153.789,46.579-15.685v-1.548l-47.8,16.1ZM2017.468,159.5,1903.305,313.29,1675.3,390.081l-.307.1L1560.833,543.972l-228.008,76.791-.308.1L1218.365,774.65,990.353,851.445l-.307.1L875.89,1005.336l-228.012,76.788-.3.1-81.132,109.3h2.3L649.1,1083.259l228.008-76.788.307-.1L991.576,852.581l228.012-76.792.307-.1L1334.051,621.9l228.012-76.791.3-.1,114.156-153.786,228.012-76.791.3-.1L2019,160.535,2179.733,106.4v-1.548L2017.772,159.4Zm-85.313-57.774-.307.1L1817.692,255.62l-228.009,76.788-.307.1L1475.216,486.3,1247.208,563.09l-.3.1-114.16,153.789L904.733,793.772l-.307.1L790.273,947.666l-228.012,76.791-.307.1L447.8,1178.348l-39.132,13.178h4.6l35.754-12.046.307-.1L563.487,1025.59,791.5,948.8l.3-.1L905.959,794.908l228.012-76.788.3-.1,114.16-153.789,228.008-76.788.3-.1,114.16-153.789,228.008-76.792.307-.1,114.156-153.789,228.008-76.788.308-.1,18.04-24.3v-3.1l-19.569,26.364Zm113.852,77-114.16,153.786L1703.836,409.3l-.3.1L1589.376,563.2l-228.012,76.791-.3.1L1246.9,793.877l-228.012,76.792-.308.1-114.16,153.789-228.008,76.788-.3.1-66.861,90.075h2.3l66.091-89.044,228.008-76.788.308-.1L1020.118,871.8l228.008-76.788.307-.1L1362.59,641.122,1590.6,564.331l.3-.1L1705.062,410.44l228.012-76.791.3-.1,114.16-153.786,132.2-44.524v-1.548l-133.422,44.936Zm57.074,499.81L1988.929,832.323l-228.012,76.792-.307.1-114.152,153.785L1418.442,1139.8l-.3.1-38.326,51.628h2.3l37.555-50.6,228.012-76.788.307-.1L1762.14,910.251l228.012-76.791.307-.1,114.156-153.786,75.117-25.3V652.72l-76.344,25.713ZM2131.625,5.715,1903.616,82.5l-.307.1L1789.149,236.4l-228.008,76.788-.3.1-114.16,153.789-228.008,76.788-.3.1-114.16,153.789L876.194,774.549l-.3.1L761.73,928.443l-228.008,76.788-.307.1L419.259,1159.125l-96.21,32.4h4.6l92.84-31.269.307-.1,114.152-153.789,228.012-76.792.307-.1L877.42,775.685,1105.432,698.9l.3-.1L1219.9,545,1447.9,468.215l.3-.1,114.16-153.789,228.008-76.788.308-.1L1904.838,83.639,2132.847,6.847l.308-.1L2179.733-56v-3.1Zm-57.082,192.236L1960.386,351.736l-228.012,76.791-.3.1L1617.915,582.418,1389.9,659.21l-.3.1L1275.44,813.1l-228.008,76.8-.3.1-114.16,153.785L704.96,1120.573l-.307.1-52.59,70.851h2.3l51.827-69.821,228-76.788.307-.1,114.163-153.786,228-76.791.3-.1,114.163-153.786,228.008-76.791.307-.1L1733.6,429.664l228.012-76.791.307-.1,114.152-153.785,103.66-34.908v-1.548L2074.85,197.846Zm-57.074,884.278-81.136,109.3h2.3L2019,1083.259l160.735-54.132v-1.548l-161.961,54.544Zm28.539,19.223-66.865,90.075h2.3l66.094-89.044,132.2-44.52v-1.548l-133.422,44.932Zm-85.621-57.669-109.671,147.744h2.3l108.9-146.713,217.813-73.355V969.91l-219.039,73.767Zm114.156,76.893-52.59,70.851h2.3l51.823-69.821,103.66-34.908v-1.548l-104.883,35.324Zm-142.388-96.217-.307.1-114.156,153.789-39.132,13.178h4.6l35.758-12.046.307-.1,114.156-153.789L2161.386,948.8l.308-.1,18.04-24.3V921.3l-19.569,26.364Zm228.009,153.891-9.783,13.178h2.3l9.016-12.147,18.04-6.077v-1.548l-19.266,6.49Zm-28.539-19.223-24.054,32.4h2.3l23.288-31.37,46.579-15.685v-1.552l-47.8,16.1Zm-57.082-499.81L1960.386,813.1l-228.012,76.792-.3.1-114.156,153.785L1389.9,1120.573l-.3.1-52.59,70.851h2.3l51.823-69.821,228.012-76.788.307-.1L1733.6,891.027l228.012-76.791.307-.1,114.152-153.786,103.66-34.909v-1.552L2074.85,659.21Zm28.539,480.583-38.319,51.628h2.3l37.556-50.6,75.117-25.293v-1.548l-76.344,25.709Zm-199.466-134.667-.307.1-114.16,153.789-96.207,32.4h4.6l92.836-31.269.308-.1,114.156-153.789,228.008-76.792.308-.1,46.579-62.748v-3.1l-48.108,64.814Zm85.313-403.589L1874.77,755.431l-228.008,76.788-.3.1L1532.3,986.112,1304.286,1062.9l-.307.1-95.4,128.521h2.3l94.633-127.49,228.012-76.788.307-.1,114.16-153.789L1876,756.566l.3-.1,114.159-153.789,189.274-63.743v-1.548l-190.5,64.159Zm57.078,38.45-114.16,153.785-228.012,76.792-.3.1-114.156,153.789-228.012,76.788-.3.1-66.861,90.075h2.3l66.095-89.044,228.012-76.788.3-.1L1705.062,871.8l228.012-76.788.3-.1,114.16-153.785,132.2-44.524V595.05l-133.422,44.936Zm-28.539-19.227-114.16,153.789L1675.3,851.445l-.307.1-114.152,153.789-228.012,76.788-.308.1-81.129,109.3h2.3l80.366-108.267,228.012-76.788.3-.1,114.156-153.789,228.012-76.788.3-.1L2019,621.9l160.735-54.132v-1.548l-161.961,54.548Zm-57.082-38.446L1846.231,736.207,1618.222,813l-.307.1-114.16,153.789-228.012,76.788-.3.1-109.668,147.744h2.3l108.9-146.713,228.012-76.788.307-.1,114.16-153.789,228.008-76.788.3-.1,114.16-153.789,217.813-73.355v-1.548l-219.039,73.767Zm-85.313,403.589-.3.1L1760.61,1139.9l-153.288,51.628h4.6l149.918-50.492.3-.1L1876.3,987.143l228.008-76.791.308-.1,75.117-101.191v-3.1L2103.082,909.22Zm-28.539-19.223-.3.1-114.16,153.785L1521.7,1191.526h4.6l206.992-69.716.3-.1L1847.76,967.92l228.008-76.792.3-.1,103.66-139.641v-3.1L2074.543,890Zm142.395,96.221-95.4,128.521h2.3l94.637-127.49,189.274-63.743v-1.548l-190.5,64.156ZM392.249,448.887,620.258,372.1l.307-.1L734.725,218.2l228.008-76.791.3-.1L1077.2-12.477l228-76.791.3-.1,9.791-13.189H1313L1303.979-90.4,1075.97-13.613l-.3.1L961.507,140.281,733.5,217.069l-.307.1L619.035,370.959,391.027,447.751l-.307.1L276.564,601.641l-18.044,6.077v1.548l19.573-6.595ZM335.171,641.122l114.16-153.789,228.008-76.791.3-.1L791.8,256.651l228.008-76.788.307-.1L1134.274,25.969l228.008-76.788.308-.1,38.329-51.636h-2.3l-37.559,50.6L1133.048,24.834l-.3.1-114.16,153.789L790.577,255.515l-.3.1L676.113,409.409,448.1,486.2l-.3.1L333.642,640.091l-75.122,25.3v1.548l76.348-25.713ZM534.641,775.79l.3-.1L649.1,621.9l228.008-76.788.307-.1L991.576,391.217l228.012-76.791.307-.1,114.156-153.785,228.012-76.791.3-.1L1676.523-70.147l96.235-32.412h-4.6L1675.3-71.282l-.307.1L1560.837,82.608,1332.825,159.4l-.308.1L1218.365,313.29,990.353,390.081l-.307.1L875.89,543.968l-228.012,76.8-.3.1L533.415,774.654,305.406,851.445l-.3.1L258.52,914.3v3.1l48.112-64.818ZM506.1,756.566l.3-.1,114.16-153.789,228.012-76.788.307-.1L963.037,371.99,1191.048,295.2l.308-.1,114.152-153.785,228.012-76.791.307-.1L1647.987-89.37l39.15-13.189h-4.6l-35.779,12.053-.3.1L1532.294,63.385l-228.008,76.791-.307.1L1189.823,294.067,961.811,370.858l-.3.1L847.351,524.745l-228.012,76.8-.3.1L504.876,755.431,276.867,832.219l-.3.1-18.044,24.3v3.1l19.573-26.368ZM317.247-102.559h-4.6L276.867-90.506l-.3.1L258.52-66.1v3.1L278.093-89.37ZM420.792,698.792,534.944,545l228.012-76.788.307-.1L877.42,314.321l228.012-76.788.3-.1L1219.9,83.639l228-76.791.3-.1,81.14-109.305h-2.3L1446.677,5.715,1218.669,82.5l-.3.1L1104.2,236.4,876.194,313.185l-.3.1L761.734,467.079,533.722,543.867l-.307.1L419.259,697.761,258.52,751.893v1.552L420.485,698.9Zm-28.543-19.223L506.405,525.78l228.012-76.788.307-.1L848.884,295.1l228.008-76.788.3-.1,114.16-153.789,228.008-76.791.3-.1,66.872-90.082h-2.3l-66.1,89.051L1190.13,63.28l-.307.1L1075.667,217.174,847.658,293.962l-.307.1L733.191,447.856,505.179,524.644l-.3.1L390.72,678.538l-132.2,44.52v1.548l133.426-44.932ZM363.71,660.346,477.866,506.556l228.012-76.788.3-.1,114.16-153.789,228.008-76.788.307-.1L1162.813,45.193,1390.822-31.6l.308-.1,52.6-70.859h-2.3L1389.6-32.731,1161.591,44.057l-.307.1L1047.127,197.951,819.119,274.739l-.307.1L704.652,428.633,476.64,505.424l-.3.1L362.181,659.315,258.52,694.223v1.548l104.887-35.324Zm-28.539,442.137L449.335,948.7l228-76.791.3-.1L791.8,718.015l228.008-76.791.307-.1,114.156-153.789,228.008-76.791.308-.1,114.156-153.789,228.008-76.788.308-.1,114.16-153.789,228.012-76.788.3-.1,38.326-51.636h-2.3l-37.559,50.6L1818,24.834l-.3.1-114.16,153.789-228.009,76.788-.307.1L1361.06,409.409,1133.048,486.2l-.3.1-114.16,153.789L790.577,716.879l-.3.1L676.113,870.77,448.1,947.561l-.3.1-114.16,153.785-75.122,25.3v1.548l76.348-25.713Zm-28.539-19.223,114.16-153.785L648.8,852.682l.3-.1,114.16-153.785L991.272,622l.3-.1L1105.735,468.11l228.008-76.791.307-.1,114.156-153.789,228.008-76.791.308-.1L1790.682,6.746l228.008-76.788.307-.1,24.058-32.412h-2.3l-23.291,31.381L1789.457,5.61l-.307.1L1674.989,159.5l-228.008,76.791-.3.1-114.16,153.789-228.008,76.788-.3.1L990.046,620.865,762.038,697.656l-.3.1L647.574,851.546,419.566,928.338l-.308.1L305.1,1082.228l-46.582,15.689v1.548l47.809-16.1Zm85.617-173.009,228.008-76.791.307-.1,114.16-153.786,228.008-76.792.3-.1L1077.2,448.887,1305.2,372.1l.3-.1L1419.668,218.2l228.012-76.791.307-.1L1762.14-12.477l228.012-76.791.307-.1,9.787-13.189h-2.3l-9.02,12.158L1760.917-13.613l-.307.1L1646.458,140.281l-228.016,76.788-.3.1L1303.975,370.959l-228,76.791-.3.1L961.507,601.641,733.5,678.433l-.307.1L619.035,832.323,391.027,909.115l-.307.1L276.56,1063.005l-18.04,6.074v1.548l19.573-6.591ZM563.18,795.013l.307-.1L677.643,641.122l228.008-76.792.308-.1L1020.118,410.44l228.008-76.791.307-.1L1362.59,179.759,1590.6,102.967l.3-.1L1705.062-50.923l153.314-51.636h-4.6l-149.943,50.5-.3.1-114.16,153.786-228.009,76.791-.3.1L1246.9,332.513,1018.892,409.3l-.308.1L904.425,563.2,676.417,639.987l-.3.1L561.954,793.877,333.945,870.668l-.3.1-75.122,101.2v3.1L335.171,871.8Zm-170.93,345.916L506.405,987.143l228.012-76.791.307-.1,114.16-153.789,228.008-76.788.3-.1,114.16-153.789,228.008-76.788.3-.1L1533.828,295.1l228.009-76.788.3-.1L1876.3,64.416l228.008-76.791.308-.1,66.868-90.082h-2.3l-66.1,89.051L1875.073,63.28l-.3.1L1760.61,217.174,1532.6,293.962l-.3.1-114.16,153.789L1190.13,524.644l-.307.1-114.16,153.789-228,76.792-.307.1L733.191,909.22,505.179,986.008l-.3.1L390.72,1139.9l-132.2,44.524v1.548l133.426-44.936ZM591.719,814.236l.308-.1L706.182,660.346,934.19,583.554l.307-.1,114.16-153.786,228.008-76.791.3-.1,114.16-153.785,228.012-76.791.307-.1L1733.6-31.7,1944-102.559h-4.6L1732.375-32.836l-.3.1L1617.915,121.054,1389.9,197.846l-.3.1L1275.44,351.736l-228.008,76.791-.3.1L932.968,582.418,704.96,659.21l-.307.1L590.5,813.1,362.484,889.892l-.3.1L258.52,1029.638v3.1L363.71,891.027ZM449.331,718.015,563.487,564.226,791.5,487.438l.3-.1L905.959,333.544l228.012-76.792.3-.1,114.16-153.789,228.008-76.788.3-.1,95.407-128.528h-2.3l-94.637,127.5L1247.208,101.73l-.3.1L1132.745,255.62,904.733,332.408l-.307.1L790.273,486.3,562.261,563.09l-.307.1L447.8,716.984,258.52,780.727v1.548l190.5-64.156ZM363.71,1121.706,477.866,967.92l228.012-76.792.3-.1,114.16-153.789,228.008-76.791.307-.1,114.156-153.789,228.008-76.788.308-.1,114.16-153.789L1733.3,199.087l.3-.1L1847.76,45.2,2075.769-31.6l.3-.1,52.6-70.859h-2.3l-51.834,69.828L1846.534,44.057l-.3.1-114.16,153.786-228.008,76.791-.307.1L1389.6,428.633l-228.009,76.792-.307.1L1047.127,659.315,819.119,736.1l-.307.1L704.652,890,476.64,966.784l-.3.1L362.181,1120.675,258.52,1155.587v1.548l104.887-35.324ZM306.632,621.9,420.792,468.11,648.8,391.319l.3-.1,114.16-153.789,228.008-76.791.3-.1L1105.735,6.746l228.008-76.788.307-.1,24.058-32.412h-2.3l-23.291,31.381L1104.509,5.61l-.3.1L990.046,159.5,762.038,236.292l-.3.1L647.574,390.186,419.566,466.974l-.308.1L305.1,620.865,258.52,636.554V638.1L306.329,622ZM363.71,198.982,477.866,45.193,705.878-31.6l.3-.1,52.6-70.859h-2.3l-51.83,69.828L476.64,44.057l-.3.1L362.181,197.951,258.52,232.859v1.548l104.887-35.321Zm57.082,38.446L534.944,83.639,762.956,6.847l.307-.1L844.4-102.559h-2.3L761.734,5.715,533.722,82.5l-.307.1L419.259,236.4,258.52,290.532v1.548l161.965-54.548Zm28.539,19.223L563.487,102.862,791.5,26.074l.3-.1L887.21-102.559h-2.3l-94.637,127.5L562.261,101.73l-.307.1L447.8,255.62,258.52,319.367v1.548l190.5-64.163ZM392.249,218.2,506.405,64.416,734.417-12.376l.307-.1,66.865-90.082h-2.3l-66.1,89.051L505.179,63.28l-.3.1L390.72,217.174l-132.2,44.52v1.548L391.946,218.31Zm85.617,57.67,114.16-153.789L820.038,45.3l.3-.1L930.02-102.559h-2.3L818.812,44.162,590.8,120.953l-.3.1L476.337,274.844,258.52,348.2v1.552l219.043-73.771Zm-75-378.433h-4.6L305.406-71.282l-.3.1L258.52-8.429v3.1l48.112-64.814Zm171.234,0h-4.6L362.484-32.836l-.3.1L258.52,106.91v3.1L363.71-31.7Zm-85.621,0h-4.6l-149.939,50.5-.3.1L258.52,49.241v3.1l76.651-103.26ZM506.1,295.2l.3-.1,114.16-153.785L848.577,64.521l.307-.1L963.037-89.37l39.157-13.189h-4.6L961.811-90.506l-.3.1L847.351,63.385,619.339,140.176l-.3.1L504.876,294.067,276.867,370.858l-.3.1L258.52,395.265v3.093l19.573-26.368ZM335.171,179.759,449.331,25.969,677.339-50.818l.3-.1,38.333-51.636h-2.3l-37.562,50.6L448.1,24.834l-.3.1L333.642,178.728l-75.122,25.3v1.548l76.348-25.709ZM591.719,352.872l.308-.1L706.182,198.982,934.19,122.19l.307-.1L1048.657-31.7l210.388-70.859h-4.6L1047.431-32.836l-.3.1L932.968,121.054,704.96,197.846l-.307.1L590.5,351.736,362.484,428.528l-.3.1L258.52,568.274v3.1L363.71,429.664Zm-57.078-38.446.3-.1L649.1,160.535,877.112,83.744l.307-.1L991.576-70.147l96.235-32.412h-4.6L990.353-71.282l-.307.1L875.89,82.608,647.878,159.4l-.3.1L533.415,313.29,305.406,390.081l-.3.1L258.52,452.935v3.1l48.112-64.814Zm28.539,19.223.307-.1,114.16-153.786,228-76.791.308-.1L1020.118-50.923l153.314-51.636h-4.6l-149.943,50.5-.308.1L904.425,101.831,676.417,178.623l-.3.1L561.954,332.513,333.945,409.3l-.3.1L258.52,510.6v3.1l76.651-103.26ZM306.632,160.535,420.792,6.746,648.8-70.042l.3-.1,24.058-32.412h-2.3L647.574-71.178,419.566,5.61l-.308.1L305.1,159.5,258.52,175.19v1.548l47.809-16.1ZM392.249-12.477,620.258-89.268l.307-.1,9.79-13.189h-2.3L619.035-90.4,391.027-13.613l-.307.1L276.564,140.281l-18.044,6.074V147.9l19.573-6.591Zm85.617,749.715,114.16-153.789,228.012-76.788.3-.1L934.5,352.767l228.012-76.788.3-.1,114.156-153.789L1504.981,45.3l.307-.1,109.675-147.752h-2.3L1503.755,44.162l-228.012,76.791-.3.1L1161.284,274.844,933.272,351.635l-.3.1L818.812,505.525,590.8,582.313l-.3.1L476.337,736.207,258.52,809.566v1.548l219.043-73.771Z" transform="translate(-258.52 102.559)" fill="#22274e"/>
          </g>
        </g>
        <circle id="Ellipse_555" data-name="Ellipse 555" cx="19" cy="19" r="19" transform="translate(1177 147.999)" fill="#d48975" opacity="0.25"/>
        <circle id="Ellipse_556" data-name="Ellipse 556" cx="36" cy="36" r="36" transform="translate(1503 885.241)" fill="#d48975" opacity="0.25"/>
        <circle id="Ellipse_557" data-name="Ellipse 557" cx="28" cy="28" r="28" transform="translate(255 916.241)" fill="#d48975" opacity="0.25"/>
      </g>
    </g>
  </g>
</svg>
