<svg xmlns="http://www.w3.org/2000/svg" width="130.331" height="130.331" viewBox="0 0 130.331 130.331">
  <g id="Group_17931" data-name="Group 17931" transform="translate(2740.166 -624.34)">
    <path id="Path_5817" data-name="Path 5817" d="M74.666,13a61.666,61.666,0,1,0,61.666,61.666A61.666,61.666,0,0,0,74.666,13Z" transform="translate(-2749.5 614.839)" fill="rgba(32,32,44,0.07)"/>
    <g id="Group_17924" data-name="Group 17924" transform="translate(-2.166 0.001)">
      <g id="Group_17845" data-name="Group 17845" transform="translate(-2738 624.339)">
        <g id="Group_17844" data-name="Group 17844">
          <path id="Path_5569" data-name="Path 5569" d="M77.666,12a1.666,1.666,0,1,0,1.666,1.666A1.666,1.666,0,0,0,77.666,12Z" transform="translate(32.678 -10.334)" fill="#f1bc19"/>
          <path id="Path_5571" data-name="Path 5571" d="M85.662,11a6.662,6.662,0,1,0,6.662,6.662A6.662,6.662,0,0,0,85.662,11Z" transform="translate(34.675 -11)" fill="#f1bc19"/>
          <path id="Path_5572" data-name="Path 5572" d="M88.331,22a3.331,3.331,0,1,0,3.331,3.331A3.331,3.331,0,0,0,88.331,22Z" transform="translate(38.669 -3.679)" fill="#8889b9"/>
          <path id="Path_5573" data-name="Path 5573" d="M127.995,83.984a3.331,3.331,0,1,0,3.343,3.331A3.337,3.337,0,0,0,127.995,83.984ZM17.685,59a6.662,6.662,0,1,0,6.685,6.662A6.674,6.674,0,0,0,17.685,59Z" transform="translate(-11 21.363)" fill="#f1bc19"/>
          <path id="Path_5574" data-name="Path 5574" d="M26.331,85a3.331,3.331,0,1,0,3.331,3.331A3.331,3.331,0,0,0,26.331,85Z" transform="translate(-2.946 38.669)" fill="#8889b9"/>
        </g>
      </g>
      <path id="Path_5575" data-name="Path 5575" d="M20.18,60.315a4.164,4.164,0,1,0,4.18,4.164A4.172,4.172,0,0,0,20.18,60.315ZM122.17,32a2.5,2.5,0,1,0,2.508,2.5A2.5,2.5,0,0,0,122.17,32Z" transform="translate(-2745.672 627.472)" fill="#d48975" opacity="0.2"/>
      <path id="Path_5792" data-name="Path 5792" d="M54.2,7.285A3.294,3.294,0,0,1,57.515,4H55.306a3.294,3.294,0,0,0-3.313,3.284v62.4A3.271,3.271,0,0,1,54.2,66.6Z" transform="translate(-2752.841 650.917)" fill="#d48975"/>
      <g id="Group_17905" data-name="Group 17905" transform="translate(-2701.313 654.377)">
        <g id="Group_17850" data-name="Group 17850" transform="translate(12.228 7.179)">
          <rect id="Rectangle_17406" data-name="Rectangle 17406" width="19.88" height="2.209" transform="translate(8.835 38.655)" fill="#d7e9ff"/>
          <rect id="Rectangle_17407" data-name="Rectangle 17407" width="37.55" height="4.418" fill="#d7e9ff"/>
          <path id="Path_5739" data-name="Path 5739" d="M182.482,150.667v8.924H162.6v-8.924a7.726,7.726,0,0,1,1.1-15.373l2.109-.033a8.518,8.518,0,0,1,13.618.244l1.944-.21a7.726,7.726,0,0,1,1.1,15.373Z" transform="translate(-153.768 -120.936)" fill="#d7e9ff"/>
        </g>
        <g id="Group_17882" data-name="Group 17882" transform="translate(0)">
          <g id="Group_17849" data-name="Group 17849" transform="translate(0.552 62.922)">
            <path id="Path_5736" data-name="Path 5736" d="M55.278,459.931a3.313,3.313,0,0,0,0,6.626h52.567v-6.626Z" transform="translate(-51.993 -459.931)" fill="#d7e9ff"/>
            <rect id="Rectangle_17405" data-name="Rectangle 17405" width="2.209" height="6.626" transform="translate(53.643 0)" fill="#d7e9ff"/>
          </g>
          <g id="Group_17881" data-name="Group 17881">
            <path id="Path_5737" data-name="Path 5737" d="M142.316,5.1V65.277a1.1,1.1,0,0,1-1.094,1.094H91.986V4h49.236A1.1,1.1,0,0,1,142.316,5.1Zm-6.565,9.848V10.566h-37.2v4.377ZM133.563,32.45a7.653,7.653,0,0,0-7.659-7.66L123.979,25a8.439,8.439,0,0,0-13.491-.242l-2.09.033A7.655,7.655,0,0,0,107.3,40.022v8.841H127V40.022A7.635,7.635,0,0,0,133.563,32.45Z" transform="translate(-85.912 -3.449)" fill="#d48975"/>
            <path id="Path_5738" data-name="Path 5738" d="M438.144,4h-2.209a1.1,1.1,0,0,1,1.1,1.094V65.277a1.1,1.1,0,0,1-1.1,1.094h2.209a1.1,1.1,0,0,0,1.1-1.094V5.1A1.1,1.1,0,0,0,438.144,4Z" transform="translate(-382.844 -3.449)" fill="#d3765d"/>
            <path id="Path_5740" data-name="Path 5740" d="M158.186,163.5a7.721,7.721,0,0,1,7.632-7.726v-.039l-2.109.033a7.726,7.726,0,0,0-1.1,15.373v11.133h2.209V171.142A7.707,7.707,0,0,1,158.186,163.5Z" transform="translate(-141.215 -134.516)" fill="#fff"/>
            <path id="Path_5741" data-name="Path 5741" d="M326.671,155.768l-2.11-.033v.039a7.723,7.723,0,0,1,1.005,15.368v11.133h2.209V171.142a7.726,7.726,0,0,0-1.1-15.373Z" transform="translate(-286.754 -134.516)" fill="#94c1ff"/>
            <path id="Path_5742" data-name="Path 5742" d="M57.515,63.116V66.4H55.306a3.294,3.294,0,0,0-3.313,3.284V7.285A3.294,3.294,0,0,1,55.306,4h2.209V63.116Z" transform="translate(-51.441 -3.449)" fill="#d3765d"/>
            <g id="Group_17851" data-name="Group 17851">
              <path id="Path_5744" data-name="Path 5744" d="M123.982,457.036H72.537a.552.552,0,0,1,0-1.1h51.445a.552.552,0,0,1,0,1.1Z" transform="translate(-68.677 -393.562)" fill="#d48975"/>
              <path id="Path_5745" data-name="Path 5745" d="M123.982,1.1H72.537A.549.549,0,0,1,71.99.552.549.549,0,0,1,72.537,0h51.445a.549.549,0,0,1,.547.552A.549.549,0,0,1,123.982,1.1Z" transform="translate(-68.677 0)" fill="#d48975"/>
              <path id="Path_5746" data-name="Path 5746" d="M51.858,463.663a3.865,3.865,0,1,1,0-7.731.552.552,0,0,1,0,1.1,2.761,2.761,0,1,0,0,5.522.552.552,0,0,1,0,1.1Z" transform="translate(-47.993 -393.562)" fill="#d48975"/>
              <path id="Path_5747" data-name="Path 5747" d="M65.648,475.242a1.657,1.657,0,1,1,0-3.313.552.552,0,0,1,0,1.1.552.552,0,0,0,0,1.1.552.552,0,0,1,0,1.1Z" transform="translate(-61.782 -407.35)" fill="#d48975"/>
              <path id="Path_5748" data-name="Path 5748" d="M48.545,4.418a.552.552,0,0,1-.552-.552A3.87,3.87,0,0,1,51.858,0a.552.552,0,0,1,0,1.1A2.764,2.764,0,0,0,49.1,3.866.552.552,0,0,1,48.545,4.418Z" transform="translate(-47.993 0)" fill="#d48975"/>
              <path id="Path_5749" data-name="Path 5749" d="M48.545,87.471a.549.549,0,0,1-.552-.547V24.544a.552.552,0,0,1,1.1,0v62.38A.549.549,0,0,1,48.545,87.471Z" transform="translate(-47.993 -20.684)" fill="#d48975"/>
              <path id="Path_5750" data-name="Path 5750" d="M449.59,2.209a.552.552,0,0,1-.552-.552.553.553,0,0,0-.552-.552.552.552,0,1,1,0-1.1,1.658,1.658,0,0,1,1.656,1.657A.552.552,0,0,1,449.59,2.209Z" transform="translate(-393.185 0)" fill="#d48975"/>
              <path id="Path_5751" data-name="Path 5751" d="M448.485,450.142a.552.552,0,1,1,0-1.1.553.553,0,0,0,.552-.552.552.552,0,1,1,1.1,0A1.658,1.658,0,0,1,448.485,450.142Z" transform="translate(-393.185 -386.667)" fill="#d48975"/>
              <path id="Path_5752" data-name="Path 5752" d="M123.982,505.028H72.537a.552.552,0,0,1,0-1.1h51.445a.552.552,0,0,1,0,1.1Z" transform="translate(-68.677 -434.928)" fill="#d48975"/>
              <path id="Path_5753" data-name="Path 5753" d="M448.485,498.134a.552.552,0,1,1,0-1.1.553.553,0,0,0,.552-.552.552.552,0,1,1,1.1,0A1.658,1.658,0,0,1,448.485,498.134Z" transform="translate(-393.185 -428.033)" fill="#d48975"/>
              <path id="Path_5754" data-name="Path 5754" d="M456.484,69.265a.549.549,0,0,1-.552-.547V8.547a.552.552,0,0,1,1.1,0V68.718A.549.549,0,0,1,456.484,69.265Z" transform="translate(-400.079 -6.895)" fill="#d48975"/>
              <path id="Path_5755" data-name="Path 5755" d="M456.484,469.453a.552.552,0,0,1-.552-.552v-4.418a.552.552,0,0,1,1.1,0V468.9A.552.552,0,0,1,456.484,469.453Z" transform="translate(-400.079 -400.457)" fill="#d48975"/>
              <path id="Path_5756" data-name="Path 5756" d="M88.539,69.265a.549.549,0,0,1-.552-.547V8.547a.552.552,0,0,1,1.1,0V68.718A.549.549,0,0,1,88.539,69.265Z" transform="translate(-82.465 -6.895)" fill="#d48975"/>
              <path id="Path_5757" data-name="Path 5757" d="M122.878,489.031H72.537a.552.552,0,0,1,0-1.1h50.34a.552.552,0,0,1,0,1.1Z" transform="translate(-68.677 -421.139)" fill="#d48975"/>
              <path id="Path_5758" data-name="Path 5758" d="M122.878,473.034H72.537a.552.552,0,0,1,0-1.1h50.34a.552.552,0,0,1,0,1.1Z" transform="translate(-68.677 -407.35)" fill="#d48975"/>
              <path id="Path_5759" data-name="Path 5759" d="M160.261,168.544a6.5,6.5,0,0,1-1.207-.1,8.278,8.278,0,0,1,1.207-16.468.552.552,0,0,1,0,1.1,7.174,7.174,0,0,0-1.027,14.274,5.514,5.514,0,0,0,1.027.083.552.552,0,1,1,0,1.1Z" transform="translate(-137.76 -131.22)" fill="#d48975"/>
              <path id="Path_5760" data-name="Path 5760" d="M336.5,168.543a.552.552,0,0,1,0-1.1,5.455,5.455,0,0,0,1-.079,7.174,7.174,0,0,0-1-14.279.552.552,0,0,1,0-1.1,8.278,8.278,0,0,1,1.181,16.473A6.425,6.425,0,0,1,336.5,168.543Z" transform="translate(-296.578 -131.219)" fill="#d48975"/>
              <path id="Path_5761" data-name="Path 5761" d="M231.98,134.606a.552.552,0,0,1-.54-.439,6.651,6.651,0,0,0-.772-1.826,7.97,7.97,0,0,0-12.684-.223,6.407,6.407,0,0,0-.924,2.046.552.552,0,0,1-1.083-.216,7.4,7.4,0,0,1,1.089-2.444,8.08,8.08,0,0,1,7.184-3.524c4.16,0,6.3,2.059,7.362,3.787a7.6,7.6,0,0,1,.91,2.176.553.553,0,0,1-.429.651A.57.57,0,0,1,231.98,134.606Z" transform="translate(-193.042 -110.471)" fill="#d48975"/>
              <path id="Path_5762" data-name="Path 5762" d="M344.5,273.415a.552.552,0,0,1-.552-.552V263.95a.552.552,0,0,1,1.1,0v8.913A.552.552,0,0,1,344.5,273.415Z" transform="translate(-303.428 -227.379)" fill="#d48975"/>
              <path id="Path_5763" data-name="Path 5763" d="M200.522,273.315a.552.552,0,0,1-.552-.552v-8.924a.556.556,0,0,1,.552-.558.547.547,0,0,1,.552.547v8.935A.552.552,0,0,1,200.522,273.315Z" transform="translate(-179.162 -227.278)" fill="#d48975"/>
              <path id="Path_5764" data-name="Path 5764" d="M220.4,329.056h-19.88a.552.552,0,0,1,0-1.1H220.4a.552.552,0,0,1,0,1.1Z" transform="translate(-179.258 -283.049)" fill="#d48975"/>
              <path id="Path_5765" data-name="Path 5765" d="M220.4,345.052h-19.88a.552.552,0,0,1,0-1.1H220.4a.552.552,0,0,1,0,1.1Z" transform="translate(-179.258 -296.855)" fill="#d48975"/>
              <path id="Path_5766" data-name="Path 5766" d="M344.5,338.159a.552.552,0,0,1-.552-.552v-1.1a.552.552,0,0,1,1.1,0v1.1A.552.552,0,0,1,344.5,338.159Z" transform="translate(-303.428 -289.959)" fill="#d48975"/>
              <path id="Path_5767" data-name="Path 5767" d="M200.522,338.159a.552.552,0,0,1-.552-.552v-1.1a.552.552,0,1,1,1.1,0v1.1A.552.552,0,0,1,200.522,338.159Z" transform="translate(-179.162 -289.959)" fill="#d48975"/>
              <path id="Path_5768" data-name="Path 5768" d="M216.52,341.606a.552.552,0,0,1-.552-.552V340.5a.552.552,0,0,1,1.1,0v.552A.552.552,0,0,1,216.52,341.606Z" transform="translate(-192.97 -293.407)" fill="#d48975"/>
              <path id="Path_5769" data-name="Path 5769" d="M232.518,341.606a.552.552,0,0,1-.552-.552V340.5a.552.552,0,0,1,1.1,0v.552A.552.552,0,0,1,232.518,341.606Z" transform="translate(-206.777 -293.407)" fill="#d48975"/>
              <path id="Path_5770" data-name="Path 5770" d="M248.515,341.606a.552.552,0,0,1-.552-.552V340.5a.552.552,0,0,1,1.1,0v.552A.552.552,0,0,1,248.515,341.606Z" transform="translate(-220.584 -293.407)" fill="#d48975"/>
              <path id="Path_5771" data-name="Path 5771" d="M264.513,341.606a.552.552,0,0,1-.552-.552V340.5a.552.552,0,0,1,1.1,0v.552A.552.552,0,0,1,264.513,341.606Z" transform="translate(-234.392 -293.407)" fill="#d48975"/>
              <path id="Path_5772" data-name="Path 5772" d="M280.51,341.606a.552.552,0,0,1-.552-.552V340.5a.552.552,0,0,1,1.1,0v.552A.552.552,0,0,1,280.51,341.606Z" transform="translate(-248.199 -293.407)" fill="#d48975"/>
              <path id="Path_5773" data-name="Path 5773" d="M296.508,341.606a.552.552,0,0,1-.552-.552V340.5a.552.552,0,1,1,1.1,0v.552A.552.552,0,0,1,296.508,341.606Z" transform="translate(-262.006 -293.407)" fill="#d48975"/>
              <path id="Path_5774" data-name="Path 5774" d="M312.505,341.606a.552.552,0,0,1-.552-.552V340.5a.552.552,0,0,1,1.1,0v.552A.552.552,0,0,1,312.505,341.606Z" transform="translate(-275.813 -293.407)" fill="#d48975"/>
              <path id="Path_5775" data-name="Path 5775" d="M328.5,341.606a.552.552,0,0,1-.552-.552V340.5a.552.552,0,0,1,1.1,0v.552A.552.552,0,0,1,328.5,341.606Z" transform="translate(-289.621 -293.407)" fill="#d48975"/>
              <path id="Path_5776" data-name="Path 5776" d="M174.083,53.515h-37.55a.552.552,0,0,1-.552-.552V48.545a.552.552,0,0,1,.552-.552h37.55a.552.552,0,0,1,.552.552v4.418A.552.552,0,0,1,174.083,53.515Zm-37-1.1h36.446V49.1H137.085Z" transform="translate(-124.305 -41.366)" fill="#d48975"/>
              <path id="Path_5777" data-name="Path 5777" d="M203.032,65.095H176.526a.552.552,0,0,1,0-1.1h26.506a.552.552,0,0,1,0,1.1Z" transform="translate(-158.583 -55.155)" fill="#d48975"/>
              <path id="Path_5778" data-name="Path 5778" d="M191.453,393.046H160.529a.552.552,0,0,1,0-1.1h30.924a.552.552,0,0,1,0,1.1Z" transform="translate(-144.803 -338.278)" fill="#d48975"/>
              <path id="Path_5779" data-name="Path 5779" d="M226.192,409.043H208.521a.552.552,0,1,1,0-1.1h17.671a.552.552,0,0,1,0,1.1Z" transform="translate(-186.151 -352.085)" fill="#d48975"/>
            </g>
          </g>
        </g>
      </g>
    </g>
  </g>
</svg>
