<svg xmlns="http://www.w3.org/2000/svg" width="130.331" height="130.331" viewBox="0 0 130.331 130.331">
  <g id="Group_17930" data-name="Group 17930" transform="translate(3217.999 -625.174)">
    <path id="Path_5793" data-name="Path 5793" d="M74.666,13a61.666,61.666,0,1,0,61.666,61.666A61.666,61.666,0,0,0,74.666,13Z" transform="translate(-3227.5 614.839)" fill="rgba(32,32,44,0.07)"/>
    <g id="Group_17925" data-name="Group 17925" transform="translate(0.001 0.841)">
      <g id="Group_17906" data-name="Group 17906" transform="translate(-3218 624.332)">
        <g id="Group_17844" data-name="Group 17844">
          <path id="Path_5569" data-name="Path 5569" d="M77.673,12a1.673,1.673,0,1,0,1.673,1.673A1.673,1.673,0,0,0,77.673,12Z" transform="translate(32.579 -10.327)" fill="#f1bc19"/>
          <path id="Path_5571" data-name="Path 5571" d="M85.693,11a6.693,6.693,0,1,0,6.693,6.693A6.693,6.693,0,0,0,85.693,11Z" transform="translate(34.599 -11)" fill="#f1bc19"/>
          <path id="Path_5572" data-name="Path 5572" d="M88.346,22a3.346,3.346,0,1,0,3.346,3.346A3.346,3.346,0,0,0,88.346,22Z" transform="translate(38.638 -3.594)" fill="#8889b9"/>
          <path id="Path_5573" data-name="Path 5573" d="M127.95,84.1a3.346,3.346,0,1,0,3.341,3.346A3.344,3.344,0,0,0,127.95,84.1ZM17.683,59a6.693,6.693,0,1,0,6.683,6.693A6.688,6.688,0,0,0,17.683,59Z" transform="translate(-11 21.134)" fill="#f1bc19"/>
          <path id="Path_5574" data-name="Path 5574" d="M26.346,85a3.346,3.346,0,1,0,3.346,3.346A3.346,3.346,0,0,0,26.346,85Z" transform="translate(-2.951 38.638)" fill="#8889b9"/>
        </g>
      </g>
      <path id="Path_5794" data-name="Path 5794" d="M20.176,60.445a4.183,4.183,0,1,0,4.176,4.183A4.18,4.18,0,0,0,20.176,60.445ZM122.073,32a2.51,2.51,0,1,0,2.506,2.51A2.508,2.508,0,0,0,122.073,32Z" transform="translate(-3225.634 627.402)" fill="#d48975" opacity="0.2"/>
      <g id="svgexport-7" transform="translate(-3188.973 653.367)">
        <path id="Path_5604" data-name="Path 5604" d="M130.694,262.575V281.2H101.789V262.575A10.267,10.267,0,0,1,112.065,252.3h8.354a10.263,10.263,0,0,1,10.275,10.274Zm0,0" transform="translate(-87.387 -216.604)" fill="#d0f4ef"/>
        <g id="Group_17522" data-name="Group 17522" transform="translate(20.929 35.697)">
          <path id="Path_5605" data-name="Path 5605" d="M214.805,262.575V281.2h-4.767V262.575A10.263,10.263,0,0,0,199.762,252.3h4.768a10.262,10.262,0,0,1,10.275,10.274Zm0,0" transform="translate(-192.428 -252.301)" fill="#abe0da"/>
          <path id="Path_5606" data-name="Path 5606" d="M170.087,252.785a11.072,11.072,0,0,1-14.086-.15,10.259,10.259,0,0,1,2.606-.333h8.353a10.254,10.254,0,0,1,3.127.484Zm0,0" transform="translate(-154.858 -252.301)" fill="#abe0da"/>
          <path id="Path_5607" data-name="Path 5607" d="M149.019,329.978a1.093,1.093,0,0,1-1.093-1.093V309.44a1.093,1.093,0,0,1,2.186,0v19.444A1.093,1.093,0,0,1,149.019,329.978Zm0,0" transform="translate(-147.925 -300.418)" fill="#abe0da"/>
          <path id="Path_5608" data-name="Path 5608" d="M245.594,315.718a1.093,1.093,0,0,1-1.093-1.093v-5.184a1.093,1.093,0,0,1,2.186,0v5.184A1.093,1.093,0,0,1,245.594,315.718Zm0,0" transform="translate(-230.836 -300.418)" fill="#abe0da"/>
          <path id="Path_5609" data-name="Path 5609" d="M245.594,352.115a1.093,1.093,0,0,1-1.093-1.093V341a1.093,1.093,0,1,1,2.186,0v10.022A1.093,1.093,0,0,1,245.594,352.115Zm0,0" transform="translate(-230.836 -327.511)" fill="#abe0da"/>
          <path id="Path_5610" data-name="Path 5610" d="M213.574,324.319h-.024a1.093,1.093,0,0,1,0-2.186h.024a1.093,1.093,0,0,1,0,2.186Zm0,0" transform="translate(-203.33 -312.253)" fill="#abe0da"/>
          <path id="Path_5611" data-name="Path 5611" d="M213.629,368.5H213.6a1.093,1.093,0,1,1,.016-2.186h.02a1.093,1.093,0,0,1-.008,2.186Zm0,0" transform="translate(-203.377 -350.185)" fill="#abe0da"/>
          <path id="Path_5612" data-name="Path 5612" d="M213.684,410.112h-.024a1.093,1.093,0,0,1,0-2.186h.024a1.093,1.093,0,0,1,0,2.186Zm0,0" transform="translate(-203.424 -385.907)" fill="#abe0da"/>
        </g>
        <path id="Path_5613" data-name="Path 5613" d="M159.066,137.955a9.345,9.345,0,1,1-9.345-9.345A9.345,9.345,0,0,1,159.066,137.955Zm0,0" transform="translate(-120.514 -110.413)" fill="#fecaa8"/>
        <path id="Path_5614" data-name="Path 5614" d="M160.5,137.483a5.15,5.15,0,0,1-2.828.842h-9.1a9.814,9.814,0,0,1-6.517-2.466,9.207,9.207,0,0,1,.6-1.771,9.347,9.347,0,0,1,17.841,3.4Zm0,0" transform="translate(-121.959 -110.419)" fill="#ffb38c"/>
        <path id="Path_5615" data-name="Path 5615" d="M152.326,108.9v3.238a3.244,3.244,0,0,1-3.244,3.244h-9.1a7.932,7.932,0,0,1-7.932-7.932V105.32a1.179,1.179,0,0,1,1.18-1.179H147.57a4.753,4.753,0,0,1,4.755,4.755Zm0,0" transform="translate(-113.371 -89.406)" fill="#ffdf49"/>
        <path id="Path_5616" data-name="Path 5616" d="M167.12,104.49v1.087a3.154,3.154,0,0,1-3.15,3.15h-8.08a3.154,3.154,0,0,1-3.151-3.15V104.14h12.59a4.735,4.735,0,0,1,1.792.349Zm0,0" transform="translate(-131.128 -89.406)" fill="#ffbd47"/>
        <path id="Path_5617" data-name="Path 5617" d="M175.707,49.958h-8.08a1.216,1.216,0,0,1-1.216-1.216v-10.8h10.514v10.8a1.217,1.217,0,0,1-1.217,1.216Zm0,0" transform="translate(-142.865 -32.57)" fill="#abe0da"/>
        <path id="Path_5618" data-name="Path 5618" d="M150.362,0a3.747,3.747,0,0,0-3,1.5,3.748,3.748,0,0,0-6,0,3.758,3.758,0,1,0,0,4.514,3.748,3.748,0,0,0,6,0,3.756,3.756,0,1,0,3-6.015Zm0,0" transform="translate(-115.561)" fill="#d0f4ef"/>
        <path id="Path_5619" data-name="Path 5619" d="M457.714,338.482h-4.586a2.014,2.014,0,1,1,0-4.029h4.586a2.014,2.014,0,1,1,0,4.029Zm0,0" transform="translate(-387.287 -287.133)" fill="#95c6df"/>
        <path id="Path_5620" data-name="Path 5620" d="M251.065,338.482h-4.586a2.014,2.014,0,0,1,0-4.029h4.586a2.014,2.014,0,1,1,0,4.029Zm0,0" transform="translate(-209.876 -287.133)" fill="#95c6df"/>
        <path id="Path_5621" data-name="Path 5621" d="M312.7,331.458V348.3a4.51,4.51,0,0,1-4.51,4.51H291.343a4.511,4.511,0,0,1-4.51-4.51V331.458a1.415,1.415,0,0,1,1.415-1.415h23.034A1.415,1.415,0,0,1,312.7,331.458Zm0,0" transform="translate(-246.249 -283.346)" fill="#d48975"/>
        <path id="Path_5622" data-name="Path 5622" d="M415.4,331.454v16.839a4.511,4.511,0,0,1-4.511,4.51h-4.426a4.512,4.512,0,0,0,4.51-4.51V330.039h3.012A1.415,1.415,0,0,1,415.4,331.454Zm0,0" transform="translate(-348.956 -283.343)" fill="#c4745f"/>
        <path id="Path_5623" data-name="Path 5623" d="M389.09,237.377a2.014,2.014,0,0,1-.881-2.709l1-1.97a2.014,2.014,0,1,1,3.59,1.828l-1,1.971A2.015,2.015,0,0,1,389.09,237.377Zm0,0" transform="translate(-333.094 -198.829)" fill="#d0f4ef"/>
        <path id="Path_5624" data-name="Path 5624" d="M323.576,236.858l-22.381-11.395a1.415,1.415,0,0,1-.619-1.9l.341-.669a3.711,3.711,0,0,1,4.991-1.624l18.289,9.311a3.712,3.712,0,0,1,1.623,4.991l-.341.669a1.414,1.414,0,0,1-1.9.619Zm0,0" transform="translate(-257.916 -189.614)" fill="#d48975"/>
        <path id="Path_5625" data-name="Path 5625" d="M79.2,336.723h4.239v7.384H79.2Zm0,0" transform="translate(-67.994 -289.081)" fill="#d6bcab"/>
        <path id="Path_5626" data-name="Path 5626" d="M73.355,332.572h4.678a.707.707,0,0,0,.707-.707v-1.513A1.356,1.356,0,0,0,77.385,329H74a1.356,1.356,0,0,0-1.355,1.356v1.513a.707.707,0,0,0,.707.707Zm0,0" transform="translate(-62.37 -282.447)" fill="#9ac6c3"/>
        <path id="Path_5627" data-name="Path 5627" d="M71.354,385.377v10.363a1.612,1.612,0,0,1-1.611,1.612H63.959a1.611,1.611,0,0,1-1.611-1.612V385.377a1.814,1.814,0,0,1,1.813-1.814h5.381A1.813,1.813,0,0,1,71.354,385.377Zm0,0" transform="translate(-53.526 -329.294)" fill="#fff0cf"/>
        <path id="Path_5628" data-name="Path 5628" d="M16.852,336.723H21.09v7.384H16.852Zm0,0" transform="translate(-14.467 -289.081)" fill="#a46243"/>
        <path id="Path_5629" data-name="Path 5629" d="M11,332.572h4.678a.708.708,0,0,0,.707-.707v-1.513A1.356,1.356,0,0,0,15.035,329H11.653a1.356,1.356,0,0,0-1.356,1.356v1.513a.707.707,0,0,0,.707.707Zm0,0" transform="translate(-8.84 -282.447)" fill="#9ac6c3"/>
        <path id="Path_5630" data-name="Path 5630" d="M9.007,385.377v10.363A1.612,1.612,0,0,1,7.4,397.351H1.612A1.611,1.611,0,0,1,0,395.739V385.377a1.813,1.813,0,0,1,1.813-1.814H7.194a1.812,1.812,0,0,1,1.813,1.813Zm0,0" transform="translate(0 -329.294)" fill="#c87c5b"/>
        <path id="Path_5631" data-name="Path 5631" d="M434.565,442.42a5.97,5.97,0,1,1-11.94,0c0-3.3,2.673-4.495,5.97-4.495S434.565,439.124,434.565,442.42Zm0,0" transform="translate(-362.829 -375.965)" fill="#e6f072"/>
        <path id="Path_5632" data-name="Path 5632" d="M459.659,442.42a5.974,5.974,0,0,1-7.8,5.683,5.972,5.972,0,0,0,4.138-5.683c0-2.656-1.738-3.951-4.138-4.352a11.086,11.086,0,0,1,1.834-.143C456.987,437.926,459.659,439.124,459.659,442.42Zm0,0" transform="translate(-387.924 -375.965)" fill="#a2d961"/>
        <path id="Path_5633" data-name="Path 5633" d="M269.023,428.347l7.284-1.281a1.962,1.962,0,1,0-.68-3.865l-7.284,1.281Zm0,0" transform="translate(-230.376 -363.298)" fill="#a2d961"/>
        <path id="Path_5634" data-name="Path 5634" d="M138.127,410.814l.716,4.075a3.926,3.926,0,0,1-3.868,4.607l-20.83,0a2.36,2.36,0,0,1-.805-4.579l19.579-7.11a3.927,3.927,0,0,1,5.207,3.011Zm0,0" transform="translate(-95.967 -349.901)" fill="#ff9921"/>
        <path id="Path_5635" data-name="Path 5635" d="M138.341,438.988l.506,2.879a3.925,3.925,0,0,1-3.868,4.6l-20.829,0a2.371,2.371,0,0,1-2.1-3.473,2.3,2.3,0,0,0,1.6.6l20.829,0A3.926,3.926,0,0,0,138.341,438.988Zm0,0" transform="translate(-95.971 -376.877)" fill="#f47a00"/>
        <path id="Path_5636" data-name="Path 5636" d="M232.065,420.713a1.072,1.072,0,0,1-.191.018,1.1,1.1,0,0,1-1.075-.905l-.841-3.721,2.033-.737a1.043,1.043,0,0,1,.112.323l.85,3.758a1.1,1.1,0,0,1-.888,1.265Zm0,0" transform="translate(-197.422 -356.598)" fill="#f47a00"/>
        <path id="Path_5637" data-name="Path 5637" d="M195.6,456.553l-2.08,0a.987.987,0,0,1-.036-.146L193,453.672l-.291-1.659a1.093,1.093,0,0,1,2.154-.379l.359,2.039.412,2.353A1.08,1.08,0,0,1,195.6,456.553Zm0,0" transform="translate(-165.429 -386.958)" fill="#f47a00"/>
      </g>
    </g>
  </g>
</svg>
