<svg xmlns="http://www.w3.org/2000/svg" width="130" height="130" viewBox="0 0 130 130">
  <g id="Group_17929" data-name="Group 17929" transform="translate(3697.82 -621.172)">
    <path id="Path_5570" data-name="Path 5570" d="M74.666,13a61.666,61.666,0,1,0,61.666,61.666A61.666,61.666,0,0,0,74.666,13Z" transform="translate(-3707.32 611.506)" fill="rgba(32,32,44,0.07)"/>
    <g id="Group_17845" data-name="Group 17845" transform="translate(-5072.82 -822.821)">
      <g id="Group_17844" data-name="Group 17844">
        <path id="Path_5569" data-name="Path 5569" d="M77.667,12a1.667,1.667,0,1,0,1.667,1.667A1.667,1.667,0,0,0,77.667,12Z" transform="translate(1407.331 1433.66)" fill="#f1bc19"/>
        <path id="Path_5571" data-name="Path 5571" d="M85.667,11a6.667,6.667,0,1,0,6.667,6.667A6.667,6.667,0,0,0,85.667,11Z" transform="translate(1409.332 1432.993)" fill="#f1bc19"/>
        <path id="Path_5572" data-name="Path 5572" d="M88.334,22a3.334,3.334,0,1,0,3.334,3.334A3.334,3.334,0,0,0,88.334,22Z" transform="translate(1413.333 1440.328)" fill="#8889b9"/>
        <path id="Path_5573" data-name="Path 5573" d="M127.666,84A3.334,3.334,0,1,0,131,87.336,3.333,3.333,0,0,0,127.666,84Zm-110-25a6.667,6.667,0,1,0,6.667,6.667A6.667,6.667,0,0,0,17.667,59Z" transform="translate(1364 1464.988)" fill="#f1bc19"/>
        <path id="Path_5574" data-name="Path 5574" d="M26.334,85a3.334,3.334,0,1,0,3.334,3.334A3.334,3.334,0,0,0,26.334,85Z" transform="translate(1372 1482.326)" fill="#8889b9"/>
      </g>
    </g>
    <path id="Path_5575" data-name="Path 5575" d="M20.167,60.336A4.167,4.167,0,1,0,24.333,64.5,4.167,4.167,0,0,0,20.167,60.336ZM121.831,32a2.5,2.5,0,1,0,2.5,2.5A2.5,2.5,0,0,0,121.831,32Z" transform="translate(-3705.486 624.17)" fill="#d48975" opacity="0.2"/>
    <g id="svgexport-10" transform="translate(-3669 653.339)">
      <path id="Path_5638" data-name="Path 5638" d="M96.043,186l-6.406-3.573c-.967-5.095-2.438-11.455-3.377-15.394a9.178,9.178,0,0,0-4.59-5.988A37.065,37.065,0,0,0,70.325,157.2a37.064,37.064,0,0,0-11.345,3.842,9.178,9.178,0,0,0-4.59,5.988c-.938,3.939-2.409,10.3-3.377,15.394L44.608,186H40.963v10.277h1.981a7.6,7.6,0,0,0,2.444-.4l13.133-4.464H82.129l13.132,4.464a7.6,7.6,0,0,0,2.444.4h1.981V186Z" transform="translate(-33.962 -123.708)" fill="#d48975"/>
      <path id="Path_5639" data-name="Path 5639" d="M150.884,164.6a5.83,5.83,0,0,0,5.823-5.823v-.109a33.616,33.616,0,0,0-5.823-1.466,33.589,33.589,0,0,0-5.823,1.466v.109A5.83,5.83,0,0,0,150.884,164.6Z" transform="translate(-114.521 -123.708)" fill="#b86b56"/>
      <path id="Path_5640" data-name="Path 5640" d="M153.06,137.211h8.028v6.1a4.014,4.014,0,0,1-8.029,0v-6.1Z" transform="translate(-120.711 -108.236)" fill="#ffc7b3"/>
      <path id="Path_5641" data-name="Path 5641" d="M60.625,110.625s0,4.726-3.544,5.414a6.233,6.233,0,0,1,3.67,5.118s.956-4.429,3.417-5.02C64.168,116.137,60.821,114.07,60.625,110.625Z" transform="translate(-46.435 -87.662)" fill="#ffcf64"/>
      <path id="Path_5642" data-name="Path 5642" d="M263.147,137.211s.754,5.493,3.764,6.686a8.092,8.092,0,0,0-3.71,5.91s-.216-4.787-4.613-6.182c0,0,3.7-1.029,4.559-6.415Z" transform="translate(-202.377 -108.236)" fill="#ffcf64"/>
      <path id="Path_5643" data-name="Path 5643" d="M153.061,140.165l8.029,1.766v-4.72h-8.029Z" transform="translate(-120.712 -108.236)" fill="#f29a86"/>
      <g id="Group_17523" data-name="Group 17523" transform="translate(2.73 44.371)">
        <path id="Path_5644" data-name="Path 5644" d="M28.114,207.591a3.208,3.208,0,0,0-5.143,0,5.881,5.881,0,0,0-.856,3.866c.329,4.075,3.427,4.823,3.427,4.823s3.1-.748,3.427-4.823A5.886,5.886,0,0,0,28.114,207.591Z" transform="translate(-22.073 -206.075)" fill="#c0c0ce"/>
        <path id="Path_5645" data-name="Path 5645" d="M34.32,249.16a.9.9,0,0,1-.9-.9V237.328a.9.9,0,0,1,1.809,0v10.928A.9.9,0,0,1,34.32,249.16Z" transform="translate(-30.851 -229.385)" fill="#c0c0ce"/>
        <path id="Path_5646" data-name="Path 5646" d="M291.644,206.091a.9.9,0,0,0-.9.9v3.378a1.947,1.947,0,0,1-1.056,1.735q-.115.06-.225.126V206.2a.9.9,0,0,0-1.809,0v6.031q-.11-.067-.226-.126a1.948,1.948,0,0,1-1.056-1.735V207a.9.9,0,1,0-1.809,0v3.378a3.75,3.75,0,0,0,2.034,3.342,1.947,1.947,0,0,1,1.056,1.735v8.719a.9.9,0,0,0,1.809,0v-8.719a1.946,1.946,0,0,1,1.056-1.735,3.75,3.75,0,0,0,2.035-3.342V207a.9.9,0,0,0-.9-.9Z" transform="translate(-225.205 -205.3)" fill="#c0c0ce"/>
      </g>
      <path id="Path_5647" data-name="Path 5647" d="M111.468,31.454a10.291,10.291,0,0,1-5.156-9.24,7.213,7.213,0,0,1,5.747-6.422s.253-8.114,13.691-6.508a17.137,17.137,0,0,0,4.845,0,4.217,4.217,0,0,1-2.141,2.789s11.832,5.578,4.141,17.663Z" transform="translate(-84.527 -9.073)" fill="#3d3d3d"/>
      <path id="Path_5648" data-name="Path 5648" d="M112.5,94.836h2.988v5.976H112.5a2.988,2.988,0,1,1,0-5.976Z" transform="translate(-87.012 -75.443)" fill="#f29a86"/>
      <path id="Path_5649" data-name="Path 5649" d="M206.412,101.63H209.4a2.988,2.988,0,0,0,2.988-2.988,2.851,2.851,0,0,0-3.054-2.749L207,95.909Z" transform="translate(-161.999 -76.261)" fill="#f29a86"/>
      <path id="Path_5650" data-name="Path 5650" d="M131.163,49.879s.9,10.441,15.4,10.441v2.142a9.278,9.278,0,0,1-9.278,9.278h-1.07a9.257,9.257,0,0,1-9.279-9.271C126.961,58.152,127.871,53.24,131.163,49.879Z" transform="translate(-100.494 -40.652)" fill="#ffc7b3"/>
      <path id="Path_5651" data-name="Path 5651" d="M152.4,108.439a.911.911,0,0,1-.64-.267.891.891,0,0,1-.111-.136.865.865,0,0,1-.084-.156.976.976,0,0,1-.052-.17.934.934,0,0,1-.018-.176.958.958,0,0,1,.018-.179.9.9,0,0,1,.052-.167.738.738,0,0,1,.084-.156.812.812,0,0,1,.111-.138.906.906,0,0,1,1.28,0,.967.967,0,0,1,.113.138.856.856,0,0,1,.084.156.888.888,0,0,1,.05.167.809.809,0,0,1,.018.179.789.789,0,0,1-.018.176.963.963,0,0,1-.05.17,1.029,1.029,0,0,1-.084.156,1.087,1.087,0,0,1-.113.136A.9.9,0,0,1,152.4,108.439Z" transform="translate(-119.504 -84.57)" fill="#4a5870"/>
      <path id="Path_5652" data-name="Path 5652" d="M183.562,108.447a.907.907,0,0,1-.9-.9.974.974,0,0,1,.016-.179.9.9,0,0,1,.052-.167.944.944,0,0,1,.084-.158.8.8,0,0,1,.113-.136.909.909,0,0,1,1.39.136.942.942,0,0,1,.084.158,1.1,1.1,0,0,1,.052.167.957.957,0,0,1,.018.179A.911.911,0,0,1,183.562,108.447Z" transform="translate(-143.618 -84.579)" fill="#4a5870"/>
      <path id="Path_5653" data-name="Path 5653" d="M35.823,280.441h4.828a2.234,2.234,0,0,1,2.234,2.234v1.969a2.234,2.234,0,0,1-2.234,2.234H35.823Z" transform="translate(-29.984 -219.079)" fill="#f29a86"/>
      <path id="Path_5654" data-name="Path 5654" d="M13.884,280.441H16.9a2.316,2.316,0,0,1,2.315,2.316v6.575a2.315,2.315,0,0,1-2.315,2.315h-3.02A3.884,3.884,0,0,1,10,287.763v-3.437a3.885,3.885,0,0,1,3.885-3.885Z" transform="translate(-10 -219.079)" fill="#ffc7b3"/>
      <path id="Path_5655" data-name="Path 5655" d="M0,0H4.828A2.234,2.234,0,0,1,7.062,2.234V4.2A2.234,2.234,0,0,1,4.828,6.435H0V0Z" transform="translate(66.52 67.798) rotate(180)" fill="#f29a86"/>
      <path id="Path_5656" data-name="Path 5656" d="M3.884,0H6.905A2.315,2.315,0,0,1,9.221,2.315V8.891a2.315,2.315,0,0,1-2.315,2.315H3.884A3.884,3.884,0,0,1,0,7.322V3.885A3.884,3.884,0,0,1,3.885,0Z" transform="translate(72.36 72.569) rotate(180)" fill="#ffc7b3"/>
      <path id="Path_5657" data-name="Path 5657" d="M115.507,234.9l.7-.239H118.7l-.216-18.167a4.285,4.285,0,0,0-1.218-3.246.514.514,0,0,0-.852.529l.291.833a2.256,2.256,0,0,1,.121.9Z" transform="translate(-91.65 -166.961)" fill="#b86b56"/>
      <path id="Path_5658" data-name="Path 5658" d="M214,234.66l.558.19-1.318-19.342a2.255,2.255,0,0,1,.121-.9l.291-.833a.514.514,0,0,0-.852-.529,4.285,4.285,0,0,0-1.218,3.246l-.216,18.167Z" transform="translate(-165.836 -166.96)" fill="#b86b56"/>
      <rect id="Rectangle_674" data-name="Rectangle 674" width="6.556" height="3.631" rx="1.815" transform="translate(32.901 47.538)" fill="#c0c0ce"/>
      <path id="Path_5659" data-name="Path 5659" d="M85.411,312.705h38.255v1.285a2.625,2.625,0,0,1-2.625,2.625h-33a2.626,2.626,0,0,1-2.626-2.626V312.7Z" transform="translate(-68.359 -244.047)" fill="#3d3d3d"/>
      <path id="Path_5660" data-name="Path 5660" d="M165.935,233.368a1.076,1.076,0,0,1-1.188-.9v-3.2a1.232,1.232,0,0,1,2.376,0v3.2A1.076,1.076,0,0,1,165.935,233.368Z" transform="translate(-129.755 -178.776)" fill="#c0c0ce"/>
      <path id="Path_5661" data-name="Path 5661" d="M114.4,242.5h-1.051A15.875,15.875,0,0,0,97.47,258.375h32.8A15.875,15.875,0,0,0,114.4,242.5Z" transform="translate(-77.691 -189.717)" fill="#e3e2e8"/>
      <path id="Path_5662" data-name="Path 5662" d="M119.174,245.742a14.455,14.455,0,0,1,2.755,3.953,6.249,6.249,0,0,1-5.641,8.94H97.63a15.994,15.994,0,0,0-.161,2.249h32.8a15.881,15.881,0,0,0-11.1-15.142Z" transform="translate(-77.69 -192.226)" fill="#c0c0ce"/>
      <circle id="Ellipse_339" data-name="Ellipse 339" cx="2.605" cy="2.605" r="2.605" transform="translate(27.14 56.647)" fill="#fff"/>
    </g>
  </g>
</svg>
