<svg xmlns="http://www.w3.org/2000/svg" width="60" height="60" viewBox="0 0 60 60">
  <g id="Group_17809" data-name="Group 17809" transform="translate(-0.21 -0.419)">
    <circle id="Ellipse_18" data-name="Ellipse 18" cx="30" cy="30" r="30" transform="translate(0.21 0.42)" fill="#fff" opacity="0.2"/>
    <path id="Icon_awesome-instagram" data-name="Icon awesome-instagram" d="M15.754,9.7A7.957,7.957,0,0,0,7.677,17.56a7.957,7.957,0,0,0,8.077,7.857,7.957,7.957,0,0,0,8.077-7.857A7.957,7.957,0,0,0,15.754,9.7Zm0,12.965a5.11,5.11,0,1,1,5.251-5.108A5.191,5.191,0,0,1,15.754,22.668ZM26.046,9.382a1.885,1.885,0,1,1-1.884-1.833A1.855,1.855,0,0,1,26.046,9.382Zm5.35,1.86A8.933,8.933,0,0,0,28.85,4.821a9.533,9.533,0,0,0-6.6-2.475c-2.6-.144-10.4-.144-13,0a9.52,9.52,0,0,0-6.6,2.468A8.962,8.962,0,0,0,.105,11.235c-.148,2.53-.148,10.113,0,12.643A8.933,8.933,0,0,0,2.65,30.3a9.545,9.545,0,0,0,6.6,2.475c2.6.144,10.4.144,13,0a9.47,9.47,0,0,0,6.6-2.475A8.991,8.991,0,0,0,31.4,23.878c.148-2.53.148-10.106,0-12.637Zm-3.36,15.351a5.246,5.246,0,0,1-2.995,2.913c-2.074.8-6.995.615-9.286.615s-7.22.178-9.286-.615a5.246,5.246,0,0,1-2.995-2.913c-.822-2.017-.633-6.8-.633-9.033s-.183-7.023.633-9.033A5.246,5.246,0,0,1,6.467,5.614C8.541,4.814,13.462,5,15.754,5s7.22-.178,9.286.615a5.246,5.246,0,0,1,2.995,2.913c.822,2.017.633,6.8.633,9.033S28.858,24.582,28.035,26.593Z" transform="translate(14.196 12.44)" fill="#fff"/>
  </g>
</svg>
