<svg xmlns="http://www.w3.org/2000/svg" width="70" height="70" viewBox="0 0 70 70">
  <g id="Group_16975" data-name="Group 16975" transform="translate(70 70) rotate(180)">
    <rect id="Rectangle_4" data-name="Rectangle 4" width="70" height="70" rx="20" fill="#d48975"/>
    <path id="Icon_ionic-ios-arrow-up" data-name="Icon ionic-ios-arrow-up" d="M12.541,10.787,22.022.567a1.7,1.7,0,0,1,2.531,0,2.047,2.047,0,0,1,0,2.734L13.81,14.881a1.7,1.7,0,0,1-2.471.056L.523,3.309A2.009,2.009,0,0,1,0,1.942,2.009,2.009,0,0,1,.523.575a1.7,1.7,0,0,1,2.531,0Z" transform="translate(41.156 21.868) rotate(90)" fill="#fff"/>
  </g>
</svg>
