<svg xmlns="http://www.w3.org/2000/svg" width="60" height="60" viewBox="0 0 60 60">
  <g id="Group_17808" data-name="Group 17808" transform="translate(0 -0.419)">
    <circle id="Ellipse_20" data-name="Ellipse 20" cx="30" cy="30" r="30" transform="translate(0 0.419)" fill="#fff" opacity="0.2"/>
    <path id="Icon_awesome-twitter" data-name="Icon awesome-twitter" d="M30.536,10.1c.022.295.022.589.022.884A19.449,19.449,0,0,1,10.712,30.325,20.085,20.085,0,0,1,0,27.273a14.8,14.8,0,0,0,1.684.084,14.2,14.2,0,0,0,8.66-2.9,6.968,6.968,0,0,1-6.522-4.715,9.019,9.019,0,0,0,1.317.105,7.558,7.558,0,0,0,1.836-.232,6.846,6.846,0,0,1-5.593-6.673v-.084a7.163,7.163,0,0,0,3.153.863,6.752,6.752,0,0,1-3.11-5.663,6.619,6.619,0,0,1,.95-3.431,20,20,0,0,0,14.383,7.115,7.489,7.489,0,0,1-.173-1.558,6.886,6.886,0,0,1,6.975-6.8,7.044,7.044,0,0,1,5.1,2.147,13.952,13.952,0,0,0,4.427-1.642,6.815,6.815,0,0,1-3.067,3.747A14.27,14.27,0,0,0,34.035,6.58a14.794,14.794,0,0,1-3.5,3.515Z" transform="translate(13.808 13.526)" fill="#fff"/>
  </g>
</svg>
